<svg class="animated" id="freepik_stories-podcast-audience" xmlns="http://www.w3.org/2000/svg" viewBox="0 0 500 500" version="1.1" xmlns:xlink="http://www.w3.org/1999/xlink" xmlns:svgjs="http://svgjs.com/svgjs" style="user-select: auto;"><style>svg#freepik_stories-podcast-audience:not(.animated) .animable {opacity: 0;}svg#freepik_stories-podcast-audience.animated #freepik--Device--inject-71 {animation: 1.5s Infinite  linear floating;animation-delay: 0s;}            @keyframes floating {                0% {                    opacity: 1;                    transform: translateY(0px);                }                50% {                    transform: translateY(-10px);                }                100% {                    opacity: 1;                    transform: translateY(0px);                }            }        </style><g id="freepik--Wall--inject-71" class="animable" style="transform-origin: 253px 357.33px; user-select: auto;"><path d="M488.48,357.33c0,.14-105.44.26-235.47.26s-235.49-.12-235.49-.26,105.41-.26,235.49-.26S488.48,357.18,488.48,357.33Z" style="fill: rgb(38, 50, 56); transform-origin: 253px 357.33px; user-select: auto;" id="elkebysl8ogdc" class="animable"></path></g><g id="freepik--character-2--inject-71" class="animable" style="transform-origin: 416.816px 327.708px; user-select: auto;"><polygon points="435.36 281.55 438.79 292 457.01 285.2 443.89 262.98 433.85 270.45 435.36 281.55" style="fill: rgb(255, 114, 94); transform-origin: 445.43px 277.49px; user-select: auto;" id="el0z7jgpo50k3" class="animable"></polygon><path d="M361.23,327.46c0,.93,22-1,22-1L416.53,324s-1-14.64,4.07-21.32c2.24-2.92,10.49-1.49,14.29-12,.89-2.45,1.35-8.14,1.35-8.14.39-.9,3.1-2.76,3.5-3.65a21.33,21.33,0,0,0-7.22-26.26h0l-18.71-3.8s-14.54,5.35-21.63,9.84c-3.85,2.43-11.42,19.59-11.42,19.59s-8.14,21.84-9.23,26.25c0,0-5.79,11.69-8,14.58s-2.34,8.36-2.34,8.36" style="fill: rgb(255, 114, 94); transform-origin: 401.41px 288.272px; user-select: auto;" id="elxlorqa0tpnk" class="animable"></path><path d="M405.75,261.15c-.05.08-.89-.45-2.4-.95a13,13,0,0,0-11.71,1.69c-1.3.91-2,1.66-2,1.6a6.58,6.58,0,0,1,1.81-1.89,12.2,12.2,0,0,1,12.06-1.75A6.69,6.69,0,0,1,405.75,261.15Z" style="fill: rgb(38, 50, 56); transform-origin: 397.695px 261.239px; user-select: auto;" id="elnvzd417pr2" class="animable"></path><path d="M403.36,315a4.72,4.72,0,0,1-1.2-.08,29.28,29.28,0,0,1-3.22-.55,41.56,41.56,0,0,1-19-9.81,31.35,31.35,0,0,1-2.32-2.31,5.79,5.79,0,0,1-.76-.93c.07-.07,1.23,1.18,3.32,3a46.86,46.86,0,0,0,8.87,6A47.62,47.62,0,0,0,399,314C401.68,314.67,403.38,314.9,403.36,315Z" style="fill: rgb(38, 50, 56); transform-origin: 390.11px 308.163px; user-select: auto;" id="el9gjre5xbrpn" class="animable"></path><path d="M405.87,318.09a7.72,7.72,0,0,1-1.37.38c-.89.22-2.19.49-3.81.78a85.88,85.88,0,0,1-25.54.55c-1.63-.22-2.94-.43-3.84-.62a7.41,7.41,0,0,1-1.38-.32,7.14,7.14,0,0,1,1.42.12c.9.13,2.22.28,3.84.45a105,105,0,0,0,12.74.53,103.79,103.79,0,0,0,12.7-1.08c1.62-.23,2.93-.45,3.83-.61A6.88,6.88,0,0,1,405.87,318.09Z" style="fill: rgb(38, 50, 56); transform-origin: 387.9px 319.295px; user-select: auto;" id="elhwa5a5nvrun" class="animable"></path><path d="M436.85,270.76a15.61,15.61,0,0,1,0,3c-.06,1.86-.22,4.42-.49,7.25s-.6,5.37-.89,7.21a16.6,16.6,0,0,1-.6,2.95,18.49,18.49,0,0,1,.23-3c.21-2,.46-4.48.74-7.21s.47-5.21.64-7.22A17.6,17.6,0,0,1,436.85,270.76Z" style="fill: rgb(38, 50, 56); transform-origin: 435.896px 280.965px; user-select: auto;" id="elepy23py7t69" class="animable"></path><path d="M375.14,315.52a8.07,8.07,0,0,1-1.08-2.68,8.51,8.51,0,0,1-.59-2.83,15.72,15.72,0,0,1,1.67,5.51Z" style="fill: rgb(250, 250, 250); transform-origin: 374.305px 312.765px; user-select: auto;" id="elhoiraxz6a3g" class="animable"></path><path d="M389.81,316.44c.13.08-.26.88-.69,1.88s-.74,1.82-.88,1.79-.05-1,.4-2S389.7,316.36,389.81,316.44Z" style="fill: rgb(250, 250, 250); transform-origin: 389.007px 318.272px; user-select: auto;" id="elgbcf7qdwy3j" class="animable"></path><path d="M381.56,323.12c-.14.05-.43-.48-.64-1.16s-.28-1.28-.15-1.33.43.48.64,1.17S381.7,323.08,381.56,323.12Z" style="fill: rgb(250, 250, 250); transform-origin: 381.167px 321.875px; user-select: auto;" id="el9baxky67xfp" class="animable"></path><path d="M404.76,320.65c.1.11-.47.75-1.27,1.44s-1.51,1.16-1.61,1.05.48-.75,1.27-1.44S404.67,320.54,404.76,320.65Z" style="fill: rgb(250, 250, 250); transform-origin: 403.32px 321.895px; user-select: auto;" id="el9xpmkcxvu0s" class="animable"></path><path d="M367.65,325.63c-.12.09-.81-.69-1.64-1.66s-1.47-1.78-1.36-1.89.93.56,1.76,1.55A4.79,4.79,0,0,1,367.65,325.63Z" style="fill: rgb(250, 250, 250); transform-origin: 366.144px 323.853px; user-select: auto;" id="elvtikevk3157" class="animable"></path><path d="M385,308.71c.09.11-.41.75-1.13,1.43s-1.4,1.16-1.49,1.06.4-.75,1.13-1.43S384.87,308.61,385,308.71Z" style="fill: rgb(250, 250, 250); transform-origin: 383.69px 309.955px; user-select: auto;" id="elf9rid1t72y5" class="animable"></path><path d="M385.36,303a4.84,4.84,0,0,1-.46-2.14,4.57,4.57,0,0,1,.07-2.19,4.91,4.91,0,0,1,.45,2.14A4.85,4.85,0,0,1,385.36,303Z" style="fill: rgb(250, 250, 250); transform-origin: 385.158px 300.835px; user-select: auto;" id="el03h6slj7u84z" class="animable"></path><path d="M396.77,306a6.66,6.66,0,0,1-1.4-2.19,6.77,6.77,0,0,1-.94-2.41,6.41,6.41,0,0,1,1.4,2.18A6.71,6.71,0,0,1,396.77,306Z" style="fill: rgb(250, 250, 250); transform-origin: 395.6px 303.7px; user-select: auto;" id="el5w8qhufpxqb" class="animable"></path><path d="M407.69,307.6c.09.11-.64.86-1.63,1.68s-1.86,1.39-1.95,1.28.63-.87,1.62-1.68S407.6,307.49,407.69,307.6Z" style="fill: rgb(250, 250, 250); transform-origin: 405.9px 309.08px; user-select: auto;" id="ellibusq77l4e" class="animable"></path><path d="M411.86,317.22a8.51,8.51,0,0,1-1.31-2.66,8.39,8.39,0,0,1-.81-2.84,8.89,8.89,0,0,1,1.3,2.66A8.79,8.79,0,0,1,411.86,317.22Z" style="fill: rgb(250, 250, 250); transform-origin: 410.8px 314.47px; user-select: auto;" id="el7ss8ja0dma" class="animable"></path><path d="M377.74,296.64a6.69,6.69,0,0,1-1.39,2.18c-.88,1.11-1.68,1.94-1.79,1.85s.5-1.06,1.38-2.18S377.62,296.55,377.74,296.64Z" style="fill: rgb(250, 250, 250); transform-origin: 376.144px 298.655px; user-select: auto;" id="els01hriwnul" class="animable"></path><path d="M383.94,287.61c-.14,0-.48-.86-.95-1.93s-.9-1.91-.78-2,.77.67,1.26,1.78A3.59,3.59,0,0,1,383.94,287.61Z" style="fill: rgb(250, 250, 250); transform-origin: 383.073px 285.641px; user-select: auto;" id="el6kvwmy0hpqd" class="animable"></path><path d="M397.94,290c.08.13-.8.78-2,1.47a5.8,5.8,0,0,1-2.23,1c-.07-.12.81-.78,2-1.47A6.18,6.18,0,0,1,397.94,290Z" style="fill: rgb(250, 250, 250); transform-origin: 395.826px 291.235px; user-select: auto;" id="ele34kzrbjfv" class="animable"></path><path d="M403.45,300.72a5.79,5.79,0,0,1-1-2.22,5.67,5.67,0,0,1-.47-2.37,5.87,5.87,0,0,1,1,2.21A6,6,0,0,1,403.45,300.72Z" style="fill: rgb(250, 250, 250); transform-origin: 402.715px 298.425px; user-select: auto;" id="ellmax8eee4g" class="animable"></path><path d="M414.43,303c-.12.09-.86-.79-1.65-1.94a6.32,6.32,0,0,1-1.23-2.25c.11-.08.86.8,1.65,1.95A6.41,6.41,0,0,1,414.43,303Z" style="fill: rgb(250, 250, 250); transform-origin: 412.99px 300.906px; user-select: auto;" id="ele9z7ext6apo" class="animable"></path><path d="M423,298.25a9.9,9.9,0,0,1-4.46.25,4.85,4.85,0,0,1,2.21-.39A5.23,5.23,0,0,1,423,298.25Z" style="fill: rgb(250, 250, 250); transform-origin: 420.77px 298.346px; user-select: auto;" id="elw2xhev6t0uc" class="animable"></path><path d="M418.25,291.81c-.15,0-.38-.94-.52-2.13a4.82,4.82,0,0,1,0-2.2,4.66,4.66,0,0,1,.52,2.13A4.82,4.82,0,0,1,418.25,291.81Z" style="fill: rgb(250, 250, 250); transform-origin: 417.99px 289.645px; user-select: auto;" id="elqdo6091bt7" class="animable"></path><path d="M410,288.39c.12.09-.37,1-1.09,2s-1.4,1.78-1.51,1.69.37-1,1.09-2S409.86,288.31,410,288.39Z" style="fill: rgb(250, 250, 250); transform-origin: 408.701px 290.236px; user-select: auto;" id="el4w9f57i1vzv" class="animable"></path><path d="M392.72,279.78c.09.11-.6.84-1.54,1.64s-1.77,1.35-1.87,1.24.6-.84,1.54-1.64S392.62,279.67,392.72,279.78Z" style="fill: rgb(250, 250, 250); transform-origin: 391.014px 281.22px; user-select: auto;" id="elpl9i9tlztwa" class="animable"></path><path d="M390.18,272c-.12.08-.74-.61-1.39-1.55s-1.09-1.77-1-1.86.74.62,1.39,1.56S390.3,272,390.18,272Z" style="fill: rgb(250, 250, 250); transform-origin: 388.989px 270.294px; user-select: auto;" id="eloehgyari5i9" class="animable"></path><path d="M403.45,274.63c-.09.12-.89-.32-1.79-1s-1.57-1.27-1.48-1.39.88.32,1.78,1S403.53,274.52,403.45,274.63Z" style="fill: rgb(250, 250, 250); transform-origin: 401.814px 273.435px; user-select: auto;" id="el7peawz5uyx9" class="animable"></path><path d="M406.32,281.18a4.57,4.57,0,0,1-2.25,1.35,4.47,4.47,0,0,1-2.59.38,409,409,0,0,1,4.84-1.73Z" style="fill: rgb(250, 250, 250); transform-origin: 403.9px 282.071px; user-select: auto;" id="elsjhgd8g77t" class="animable"></path><path d="M417.93,277.7a18,18,0,0,1-3.6-4.9,9.23,9.23,0,0,1,2,2.29A9.4,9.4,0,0,1,417.93,277.7Z" style="fill: rgb(250, 250, 250); transform-origin: 416.13px 275.25px; user-select: auto;" id="el9kfwf9nbgv9" class="animable"></path><path d="M428.22,288.92a8.06,8.06,0,0,1-1.48-2.44,8,8,0,0,1-1-2.67,7.91,7.91,0,0,1,1.48,2.44A7.83,7.83,0,0,1,428.22,288.92Z" style="fill: rgb(250, 250, 250); transform-origin: 426.98px 286.365px; user-select: auto;" id="el0yrqj4m8riws" class="animable"></path><path d="M432.36,276.42a6.37,6.37,0,0,1-2.43,1.52,6.51,6.51,0,0,1-2.76.8,10.49,10.49,0,0,1,2.55-1.28A10.62,10.62,0,0,1,432.36,276.42Z" style="fill: rgb(250, 250, 250); transform-origin: 429.765px 277.58px; user-select: auto;" id="elvhxcextcu3a" class="animable"></path><path d="M427.71,268.42a12,12,0,0,1-4.46,2.08,6,6,0,0,1,2.12-1.28A6.08,6.08,0,0,1,427.71,268.42Z" style="fill: rgb(250, 250, 250); transform-origin: 425.48px 269.46px; user-select: auto;" id="elll966owykt9" class="animable"></path><path d="M401.6,263.92a5.61,5.61,0,0,1-2.4-.11,5.87,5.87,0,0,1-2.32-.63,11,11,0,0,1,4.72.74Z" style="fill: rgb(250, 250, 250); transform-origin: 399.24px 263.579px; user-select: auto;" id="elo1wqicq7bx" class="animable"></path><path d="M407.9,255.12a4.88,4.88,0,0,1-2.37.72,4.72,4.72,0,0,1-2.48-.07,8.45,8.45,0,0,1,2.41-.44A8.09,8.09,0,0,1,407.9,255.12Z" style="fill: rgb(250, 250, 250); transform-origin: 405.475px 255.538px; user-select: auto;" id="ely60yijppbqc" class="animable"></path><path d="M413.17,256.56a10.68,10.68,0,0,1,.53-4.71,5.65,5.65,0,0,1,0,2.39A5.71,5.71,0,0,1,413.17,256.56Z" style="fill: rgb(250, 250, 250); transform-origin: 413.466px 254.205px; user-select: auto;" id="elp3ff5fk3e08" class="animable"></path><path d="M415.9,264.93a13.77,13.77,0,0,1-4.59-2.75,13.77,13.77,0,0,1,4.59,2.75Z" style="fill: rgb(250, 250, 250); transform-origin: 413.605px 263.555px; user-select: auto;" id="elx59ws0gtrrj" class="animable"></path><path d="M424.93,260c.08.14-.9.8-1.94,1.8s-1.75,1.93-1.88,1.85a4.63,4.63,0,0,1,1.53-2.23A4.55,4.55,0,0,1,424.93,260Z" style="fill: rgb(250, 250, 250); transform-origin: 423.022px 261.827px; user-select: auto;" id="eltefu23svbm" class="animable"></path><path d="M427.15,255.81a6.13,6.13,0,0,1-2.49-.41,6.28,6.28,0,0,1-2.36-.9,12.12,12.12,0,0,1,4.85,1.31Z" style="fill: rgb(250, 250, 250); transform-origin: 424.725px 255.158px; user-select: auto;" id="elzvrbr6tbxd" class="animable"></path><path d="M435.27,264.42a16.5,16.5,0,0,1-.67-5.76,8.13,8.13,0,0,1,.6,2.85A8.42,8.42,0,0,1,435.27,264.42Z" style="fill: rgb(250, 250, 250); transform-origin: 434.967px 261.54px; user-select: auto;" id="elqj9s28l1muc" class="animable"></path><path d="M442.37,286.29c-.11.1-.87-.55-1.7-1.45s-1.43-1.72-1.32-1.82.86.56,1.7,1.46S442.48,286.19,442.37,286.29Z" style="fill: rgb(250, 250, 250); transform-origin: 440.86px 284.655px; user-select: auto;" id="el77qprdobp1c" class="animable"></path><path d="M450.48,281.59c.09.13-.63.75-1.45,1.57s-1.44,1.52-1.57,1.44.35-1,1.21-1.81S450.41,281.48,450.48,281.59Z" style="fill: rgb(250, 250, 250); transform-origin: 448.963px 283.091px; user-select: auto;" id="el0ftnu946klhh" class="animable"></path><path d="M446.06,278.06c-.14-.05.05-.91.41-1.92s.77-1.79.9-1.75-.05.91-.41,1.93S446.19,278.11,446.06,278.06Z" style="fill: rgb(250, 250, 250); transform-origin: 446.713px 276.225px; user-select: auto;" id="ell67xaes5go" class="animable"></path><path d="M443.1,277.58a16.63,16.63,0,0,1-4.81-3.33,8.28,8.28,0,0,1,2.56,1.45A8.51,8.51,0,0,1,443.1,277.58Z" style="fill: rgb(250, 250, 250); transform-origin: 440.695px 275.915px; user-select: auto;" id="el53h4qavtacl" class="animable"></path><path d="M444.59,268.76a6.4,6.4,0,0,1-2.27,1.2,6.72,6.72,0,0,1-2.47.71,6.28,6.28,0,0,1,2.27-1.2A6.72,6.72,0,0,1,444.59,268.76Z" style="fill: rgb(250, 250, 250); transform-origin: 442.22px 269.715px; user-select: auto;" id="elmw367etjr3" class="animable"></path><path d="M431,292.82a7.06,7.06,0,0,1-1.46,2.26c-.91,1.16-1.75,2-1.86,1.93a7.15,7.15,0,0,1,1.46-2.26C430,293.59,430.88,292.73,431,292.82Z" style="fill: rgb(250, 250, 250); transform-origin: 429.34px 294.914px; user-select: auto;" id="elftq3kq64w8l" class="animable"></path><g id="elcyeuogwug6g" style="user-select: auto;"><g style="opacity: 0.3; transform-origin: 401.17px 298.81px; user-select: auto;" class="animable"><path d="M401,299.19l-1.28.58-11.24-22.24c2.24,7,4.21,14,6.6,20.94a8.67,8.67,0,0,0,1.94,3.61c.64.62,1.47,1,2.13,1.63a8.76,8.76,0,0,1,1.79,2.67,53.32,53.32,0,0,0,4.69,8.51,13.33,13.33,0,0,0,8.23,5.2C410,314.47,405.62,307.19,401,299.19Z" id="el26k525ussul" class="animable" style="transform-origin: 401.17px 298.81px; user-select: auto;"></path></g></g><g id="elicionvqfyd" style="user-select: auto;"><g style="opacity: 0.3; transform-origin: 388.48px 316.954px; user-select: auto;" class="animable"><path d="M403.42,318.61a36.61,36.61,0,0,1-25.53-4.09c-1.08-.62-2.4-1.3-3.47-.67a2.6,2.6,0,0,0-.86,2.89,4,4,0,0,0,1.49,2.35,6.45,6.45,0,0,0,2.79.92,57.86,57.86,0,0,0,6,.21c6.39.41,13.37-.7,19.7-1.45" id="elgo1ti9kqx77" class="animable" style="transform-origin: 388.48px 316.954px; user-select: auto;"></path></g></g><g id="eld0ee7dnx2lj" style="user-select: auto;"><g style="opacity: 0.3; transform-origin: 436.805px 274.195px; user-select: auto;" class="animable"><path d="M431.39,260.43c.59,2.46,3,4,4.38,6.11,1.75,2.8,1.44,6.35,1.58,9.65a32.66,32.66,0,0,0,4.13,14.5h.74l-2.37-24.78-2.34-1.46-2.18-4.6-3-.61-.2-1.54Z" id="eluzr6x97f47p" class="animable" style="transform-origin: 436.805px 274.195px; user-select: auto;"></path></g></g><polygon points="428.91 416.44 431.16 406.08 451.54 406.08 446.41 420.51 428.91 416.44" style="fill: rgb(255, 190, 157); transform-origin: 440.225px 413.295px; user-select: auto;" id="elgv95174d4h9" class="animable"></polygon><path d="M446.41,420.51l-4.8,17.91s16.59,10.89,16,14.29l-35.06-8.06,6.33-28.21Z" style="fill: rgb(255, 114, 94); transform-origin: 440.088px 434.575px; user-select: auto;" id="elknw9suh0rg9" class="animable"></path><path d="M431.12,434.41a1.47,1.47,0,0,0-1.37,1.41,1.41,1.41,0,0,0,1.38,1.36,1.56,1.56,0,0,0,1.44-1.5,1.47,1.47,0,0,0-1.59-1.26" style="fill: rgb(224, 224, 224); transform-origin: 431.16px 435.795px; user-select: auto;" id="elw9n1gsch358" class="animable"></path><g id="el0hs2a28gta9j" style="user-select: auto;"><g style="opacity: 0.6; transform-origin: 440.157px 447.27px; user-select: auto;" class="animable"><path d="M422.58,444.65l.75-2.82,33.33,8.78s1.41,1,1,2.1Z" style="fill: rgb(255, 255, 255); transform-origin: 440.157px 447.27px; user-select: auto;" id="eln5r36657lr8" class="animable"></path></g></g><path d="M442.22,438.37c-.05.17-.92.05-1.89.41s-1.58,1-1.72.87.34-1,1.52-1.45S442.29,438.22,442.22,438.37Z" style="fill: rgb(38, 50, 56); transform-origin: 440.405px 438.838px; user-select: auto;" id="el6xcrem98vzd" class="animable"></path><path d="M445.55,440.74c0,.17-.81.29-1.56.88s-1.09,1.32-1.26,1.28-.05-1,.89-1.76S445.58,440.57,445.55,440.74Z" style="fill: rgb(38, 50, 56); transform-origin: 444.108px 441.744px; user-select: auto;" id="elb6oosd6enjf" class="animable"></path><path d="M446.62,445.62c-.16,0-.2-.91.45-1.75s1.55-1,1.59-.86-.58.54-1.1,1.24S446.8,445.64,446.62,445.62Z" style="fill: rgb(38, 50, 56); transform-origin: 447.591px 444.293px; user-select: auto;" id="elumv3tgfg6cp" class="animable"></path><path d="M442.86,434.17c-.11.14-.84-.28-1.82-.44s-1.81,0-1.86-.19.81-.61,2-.41S443,434.05,442.86,434.17Z" style="fill: rgb(38, 50, 56); transform-origin: 441.029px 433.638px; user-select: auto;" id="elpa9t77yw9oo" class="animable"></path><path d="M443.76,430.54a3.38,3.38,0,0,1-1.75-.42,7.68,7.68,0,0,1-1.71-1,8.9,8.9,0,0,1-.89-.77,2.46,2.46,0,0,1-.43-.53.77.77,0,0,1,.13-.93,1,1,0,0,1,.84-.22,2.38,2.38,0,0,1,.64.24A6.59,6.59,0,0,1,443,429c.64.94.77,1.64.7,1.66s-.36-.58-1.05-1.4a7.28,7.28,0,0,0-1.36-1.24,7,7,0,0,0-.94-.54c-.34-.18-.66-.26-.79-.12s-.06.08,0,.21a2,2,0,0,0,.32.39,9.2,9.2,0,0,0,.81.74,10.32,10.32,0,0,0,1.54,1.05A11.66,11.66,0,0,1,443.76,430.54Z" style="fill: rgb(38, 50, 56); transform-origin: 441.32px 428.656px; user-select: auto;" id="ell9ccpz9a2j8" class="animable"></path><path d="M443.48,430.73a2.88,2.88,0,0,1-.07-1.8,6,6,0,0,1,.68-1.87,6.09,6.09,0,0,1,.69-1,1.49,1.49,0,0,1,1.33-.63.85.85,0,0,1,.62.66,2.68,2.68,0,0,1,0,.68,4.11,4.11,0,0,1-1.44,2.83c-.89.75-1.65.79-1.65.73s.63-.3,1.36-1.05a4.23,4.23,0,0,0,.93-1.52,3.77,3.77,0,0,0,.2-1c0-.39,0-.72-.19-.71s-.53.17-.74.43a5.72,5.72,0,0,0-.66.85,6.5,6.5,0,0,0-.74,1.68C443.55,430,443.58,430.73,443.48,430.73Z" style="fill: rgb(38, 50, 56); transform-origin: 445.025px 428.078px; user-select: auto;" id="elyphye42uz8b" class="animable"></path><polygon points="407.97 416.61 410.23 406.26 430.6 406.26 425.47 420.68 407.97 416.61" style="fill: rgb(255, 190, 157); transform-origin: 419.285px 413.47px; user-select: auto;" id="el88k65u0651y" class="animable"></polygon><path d="M425.47,420.68l-4.8,17.91s16.6,10.9,16,14.29l-35.06-8.05L408,416.61Z" style="fill: rgb(255, 114, 94); transform-origin: 419.148px 434.745px; user-select: auto;" id="ela2odn7qbb8p" class="animable"></path><path d="M410.18,434.58a1.47,1.47,0,0,0-1.36,1.41,1.41,1.41,0,0,0,1.38,1.36,1.54,1.54,0,0,0,1.44-1.49,1.46,1.46,0,0,0-1.6-1.26" style="fill: rgb(224, 224, 224); transform-origin: 410.23px 435.965px; user-select: auto;" id="elqrar17mc6ng" class="animable"></path><g id="elu9hdriwbfhg" style="user-select: auto;"><g style="opacity: 0.6; transform-origin: 419.221px 447.445px; user-select: auto;" class="animable"><path d="M401.64,444.83l.75-2.82,33.34,8.78s1.4,1,1,2.09Z" style="fill: rgb(255, 255, 255); transform-origin: 419.221px 447.445px; user-select: auto;" id="elq3i9o1ndpd" class="animable"></path></g></g><path d="M421.28,438.55c0,.17-.92.05-1.88.4s-1.59,1-1.73.87.34-1,1.52-1.44S421.36,438.4,421.28,438.55Z" style="fill: rgb(38, 50, 56); transform-origin: 419.465px 439.016px; user-select: auto;" id="elnihp3jd8glo" class="animable"></path><path d="M424.61,440.91c0,.18-.81.3-1.55.89s-1.1,1.32-1.26,1.27-.06-1,.88-1.76S424.65,440.75,424.61,440.91Z" style="fill: rgb(38, 50, 56); transform-origin: 423.174px 441.917px; user-select: auto;" id="elxh3fb5iptyp" class="animable"></path><path d="M425.69,445.79c-.17,0-.21-.91.45-1.74s1.54-1,1.58-.87-.57.55-1.1,1.24S425.86,445.82,425.69,445.79Z" style="fill: rgb(38, 50, 56); transform-origin: 426.653px 444.466px; user-select: auto;" id="el88xaihqq7xr" class="animable"></path><path d="M421.92,434.34c-.1.14-.83-.27-1.82-.43s-1.8,0-1.86-.19.81-.62,2-.41S422,434.23,421.92,434.34Z" style="fill: rgb(38, 50, 56); transform-origin: 420.082px 433.811px; user-select: auto;" id="el7z5wjg3wgie" class="animable"></path><path d="M422.83,430.71a3.43,3.43,0,0,1-1.76-.41,8.18,8.18,0,0,1-1.71-1,8.65,8.65,0,0,1-.88-.77A2,2,0,0,1,418,428a.77.77,0,0,1,.13-.93,1,1,0,0,1,.84-.22,2.38,2.38,0,0,1,.64.24,6.66,6.66,0,0,1,1,.63,6.47,6.47,0,0,1,1.37,1.43,3.12,3.12,0,0,1,.71,1.67c-.09,0-.37-.59-1.05-1.4a6.93,6.93,0,0,0-1.36-1.24,6.62,6.62,0,0,0-.94-.55c-.35-.18-.67-.26-.8-.11s-.06.08,0,.2a1.48,1.48,0,0,0,.32.39,7.93,7.93,0,0,0,.8.75,10.49,10.49,0,0,0,1.55,1A13.48,13.48,0,0,1,422.83,430.71Z" style="fill: rgb(38, 50, 56); transform-origin: 420.365px 428.826px; user-select: auto;" id="elw4p9d3bbwvt" class="animable"></path><path d="M422.55,430.9a2.79,2.79,0,0,1-.08-1.8,6.11,6.11,0,0,1,.68-1.87,6,6,0,0,1,.7-1,1.49,1.49,0,0,1,1.32-.63.85.85,0,0,1,.62.66,2.34,2.34,0,0,1,0,.69,4.07,4.07,0,0,1-.27,1.18,4.18,4.18,0,0,1-1.16,1.64c-.9.75-1.66.79-1.66.73s.63-.29,1.36-1A4.09,4.09,0,0,0,425,428a3.7,3.7,0,0,0,.21-1c0-.38,0-.72-.19-.71a1,1,0,0,0-.75.43,6.2,6.2,0,0,0-.65.85,6.71,6.71,0,0,0-.75,1.68C422.61,430.22,422.65,430.9,422.55,430.9Z" style="fill: rgb(38, 50, 56); transform-origin: 424.087px 428.248px; user-select: auto;" id="elb2ldr0oy4uc" class="animable"></path><path d="M452.45,217a5.87,5.87,0,0,0-.17-7,9.6,9.6,0,0,0-6.44-3.47,28.88,28.88,0,0,0-7.48.25,8,8,0,0,0-14.25.24,5.08,5.08,0,0,0-7.72,4.6l9.54,7.05,5.35,24.15a9.78,9.78,0,0,0,17.58-8.18,8.32,8.32,0,0,0,2.27-1.53,8.58,8.58,0,0,0,5.34-3.89A9,9,0,0,0,452.45,217Z" style="fill: rgb(38, 50, 56); transform-origin: 436.932px 224.939px; user-select: auto;" id="eltdwj9hdva3" class="animable"></path><path d="M432.16,257.7c.36-3.55.61-6,.61-6s7.06-.51,9.34-9.45c1.14-4.45,1.59-11.87,1.77-18,.16-5.48-2.82-12.49-8.3-12.42l-17.34,2.71c-1.67,0-2.37,1.37-2.49,3l-.21.76-1.62,26.07-.86,11.6a9.57,9.57,0,0,0,8.08,10.1h0A9.59,9.59,0,0,0,432.16,257.7Z" style="fill: rgb(255, 190, 157); transform-origin: 428.462px 239.008px; user-select: auto;" id="elcxs7lmumefv" class="animable"></path><path d="M442,230.16a1.17,1.17,0,0,1-1.23,1.07,1.12,1.12,0,0,1-1.11-1.16,1.17,1.17,0,0,1,1.23-1.07A1.12,1.12,0,0,1,442,230.16Z" style="fill: rgb(38, 50, 56); transform-origin: 440.83px 230.115px; user-select: auto;" id="elot7ohdi1gx" class="animable"></path><path d="M441.85,228.27c-.16.14-1-.59-2.24-.7s-2.22.43-2.35.26.12-.34.54-.59a3.28,3.28,0,0,1,1.9-.4,3.1,3.1,0,0,1,1.76.76C441.82,227.93,441.92,228.21,441.85,228.27Z" style="fill: rgb(38, 50, 56); transform-origin: 439.548px 227.557px; user-select: auto;" id="el463mlfp7kp5" class="animable"></path><path d="M429.72,229.25a1.18,1.18,0,0,1-1.23,1.08,1.13,1.13,0,0,1-1.11-1.17,1.18,1.18,0,0,1,1.23-1.07A1.13,1.13,0,0,1,429.72,229.25Z" style="fill: rgb(38, 50, 56); transform-origin: 428.55px 229.21px; user-select: auto;" id="elz3f1n14ufz" class="animable"></path><path d="M429.61,227.56c-.16.13-1-.6-2.23-.71s-2.23.43-2.35.26.11-.33.53-.59a3.3,3.3,0,0,1,1.9-.4,3.1,3.1,0,0,1,1.76.76C429.58,227.21,429.69,227.49,429.61,227.56Z" style="fill: rgb(38, 50, 56); transform-origin: 427.316px 226.841px; user-select: auto;" id="el8r38qvf55b6" class="animable"></path><path d="M433.27,236.84a7.65,7.65,0,0,1,2.07-.18c.32,0,.63,0,.71-.25a1.7,1.7,0,0,0-.13-1c-.23-.8-.47-1.64-.72-2.53a41.33,41.33,0,0,1-1.53-6.56,43.76,43.76,0,0,1,2.06,6.43c.23.88.46,1.72.68,2.53a2,2,0,0,1,0,1.27.83.83,0,0,1-.57.42,2.1,2.1,0,0,1-.55,0A8.11,8.11,0,0,1,433.27,236.84Z" style="fill: rgb(38, 50, 56); transform-origin: 434.892px 231.654px; user-select: auto;" id="eljeckuwias7e" class="animable"></path><path d="M432.77,251.74a23.16,23.16,0,0,1-11.86-4.37s2.47,6.69,11.64,6.68Z" style="fill: rgb(235, 153, 110); transform-origin: 426.84px 250.71px; user-select: auto;" id="el4iq6dqiyqr9" class="animable"></path><path d="M430.4,225c-.18.31-1.39-.07-2.87-.16s-2.73.1-2.87-.23c-.06-.16.2-.44.73-.69a4.84,4.84,0,0,1,2.23-.35,4.75,4.75,0,0,1,2.15.65C430.26,224.5,430.48,224.82,430.4,225Z" style="fill: rgb(38, 50, 56); transform-origin: 427.534px 224.337px; user-select: auto;" id="ellshv5rw5ks" class="animable"></path><path d="M442.54,225.34c-.28.26-1.28-.13-2.5-.26s-2.29,0-2.5-.33c-.09-.16.1-.43.58-.66a4,4,0,0,1,2.08-.27,3.92,3.92,0,0,1,1.95.75C442.55,224.91,442.67,225.21,442.54,225.34Z" style="fill: rgb(38, 50, 56); transform-origin: 440.054px 224.605px; user-select: auto;" id="elaqhf4kowto" class="animable"></path><path d="M423.69,210.1a6.24,6.24,0,0,0,6.75,6.82c1.41-.12,3-.68,4.12.18s1.06,2.8,2.09,3.88c1.47,1.54,4.14.48,6.11,1.27,1.52.62,2.36,2.21,3.28,3.57s2.37,2.71,4,2.39a18.86,18.86,0,0,0-.23-4.25,6.22,6.22,0,0,0-2.05-3.63,21.17,21.17,0,0,1-1.9-1.36c-1.2-1.17-1.33-3-2-4.57a6.85,6.85,0,0,0-4.86-3.93c-1.77-.35-3.66,0-5.36-.6-1.25-.44-2.3-1.38-3.58-1.76-2.49-.72-5,.88-7,2.52" style="fill: rgb(38, 50, 56); transform-origin: 436.566px 218.095px; user-select: auto;" id="el2aoltdv5si8" class="animable"></path><path d="M431.47,214.48c-1.1-.43-3.36-1.39-3.88-2.44a7,7,0,0,0-5.72-4,5.76,5.76,0,0,0-5.6,4,8.28,8.28,0,0,0-7.52,3.9,9.59,9.59,0,0,0-.59,8.92,17.13,17.13,0,0,1,.72,2.28,14.49,14.49,0,0,0-2.07,1.7c-3,3.45,1.4,6.49,1.4,6.49-.82,2.7,1.66,3.45,3.26,3.93s1.16,5,2.45,5.22l2.79-13.5a1.7,1.7,0,0,0,.54.29c3,1,3.95-4.94,3.44-6.71a17.93,17.93,0,0,0,3.36-2.92,12.93,12.93,0,0,0,2-6C427.13,215.77,432,214.67,431.47,214.48Z" style="fill: rgb(38, 50, 56); transform-origin: 418.637px 226.259px; user-select: auto;" id="ell2wzhjf8udo" class="animable"></path><path d="M416.94,231.82a2.66,2.66,0,0,0-3.66-2.62c-1,.44-1.77,1.44-1.88,3.5-.3,5.49,5.27,4.65,5.29,4.49S416.84,234.09,416.94,231.82Z" style="fill: rgb(255, 190, 157); transform-origin: 414.166px 233.167px; user-select: auto;" id="elrtg9p8keprg" class="animable"></path><path d="M415.13,235s-.1.07-.27.13a.92.92,0,0,1-.71,0,2.36,2.36,0,0,1-1-2.18,3.14,3.14,0,0,1,.34-1.36,1.09,1.09,0,0,1,.75-.69.48.48,0,0,1,.55.29c.07.16,0,.26.06.28s.12-.09.09-.32a.64.64,0,0,0-.2-.35.7.7,0,0,0-.52-.17,1.31,1.31,0,0,0-1,.8,3.21,3.21,0,0,0-.42,1.51,2.48,2.48,0,0,0,1.27,2.44,1,1,0,0,0,.88-.1C415.11,235.16,415.15,235,415.13,235Z" style="fill: rgb(235, 153, 110); transform-origin: 413.96px 233.033px; user-select: auto;" id="elz8wi4hjqj6" class="animable"></path><path d="M446.46,233.12a15.82,15.82,0,0,0,1.46-.8,7.88,7.88,0,0,0,2.81-3.47,7.64,7.64,0,0,0,.63-3,6.6,6.6,0,0,0-.95-3.37,7.76,7.76,0,0,0-6.83-3.66,6.65,6.65,0,0,0-.78.08c-.25,0-.49.11-.73.16l-.37.08.11-.35a2.71,2.71,0,0,0-.13-1.86,4.43,4.43,0,0,0-1.14-1.5,5.66,5.66,0,0,0-3.32-1.29c-2.34-.18-4.5.25-6.31-.09a5.84,5.84,0,0,1-3.7-2,3,3,0,0,1-.53-1c-.06-.26-.09-.39-.07-.4a4.58,4.58,0,0,0,.72,1.33,5.85,5.85,0,0,0,3.63,1.82,14.41,14.41,0,0,0,2.89,0,25.22,25.22,0,0,1,3.4-.06,7.69,7.69,0,0,1,1.85.37,5.81,5.81,0,0,1,1.71,1,4.59,4.59,0,0,1,1.26,1.64,3.14,3.14,0,0,1,.15,2.16l-.27-.27c.25-.06.51-.13.78-.18s.55-.08.83-.08a8.11,8.11,0,0,1,7.19,3.89,6.76,6.76,0,0,1,1,3.57,8.08,8.08,0,0,1-3.69,6.63,5.23,5.23,0,0,1-1.14.54C446.61,233.1,446.46,233.14,446.46,233.12Z" style="fill: rgb(69, 90, 100); transform-origin: 439.177px 221.888px; user-select: auto;" id="el5294856cnzf" class="animable"></path><path d="M450.94,214.92a6,6,0,0,0-1.47-1.07,4.49,4.49,0,0,0-2-.43,4.08,4.08,0,0,0-2.45.84l-.28.22,0-.35a6.22,6.22,0,0,0-3.72-5.07,8,8,0,0,0-5.05-.09,21.65,21.65,0,0,1-4.27.77,6.07,6.07,0,0,1-2.88-.53,4.34,4.34,0,0,1-.68-.43,1,1,0,0,1-.2-.2s.33.21.95.47a6.2,6.2,0,0,0,2.8.38,22.69,22.69,0,0,0,4.19-.85,14.17,14.17,0,0,1,2.55-.4,6.37,6.37,0,0,1,2.76.48,6.55,6.55,0,0,1,3.93,5.45l-.31-.14a4.36,4.36,0,0,1,2.69-.85,4.63,4.63,0,0,1,2.1.53,4,4,0,0,1,1.09.86A1.37,1.37,0,0,1,450.94,214.92Z" style="fill: rgb(69, 90, 100); transform-origin: 439.44px 211.546px; user-select: auto;" id="elea1xr4a8bj" class="animable"></path><path d="M432.1,239a1.85,1.85,0,0,0-1.27-.84,2.11,2.11,0,0,0-1.63.57l0,0-.07.05h0a1.07,1.07,0,0,0-.34.55,1.51,1.51,0,0,0,.5,1.33,1.91,1.91,0,0,0,2.17.34A1.56,1.56,0,0,0,432.1,239Z" style="fill: rgb(255, 114, 94); transform-origin: 430.509px 239.674px; user-select: auto;" id="elhxxv1dldf3g" class="animable"></path><path d="M429.81,237.56c.06,0,0,.28.11.69a2.74,2.74,0,0,0,.66,1.4,2.78,2.78,0,0,0,1.34.77c.4.1.67.09.68.16s-.26.17-.73.14a2.45,2.45,0,0,1-2.26-2.45C429.62,237.81,429.76,237.55,429.81,237.56Z" style="fill: rgb(38, 50, 56); transform-origin: 431.105px 239.143px; user-select: auto;" id="elw1z4lecpjs" class="animable"></path><path d="M439.85,265.91,443,296.34s2.29,18.23,10.94,18.23c5,0,11.74-6.46,9.21-15.15-1.55-5.31-5.77-16.5-5.77-16.5L449,261.37Z" style="fill: rgb(255, 190, 157); transform-origin: 451.775px 287.97px; user-select: auto;" id="elzofb5nw0mw" class="animable"></path><path d="M449,261.7,445.43,248l-.94-9.53c-.06-.53-.21-1.15-.71-1.3a1.14,1.14,0,0,0-1.34.53c-.38.85-.51,9.57-.51,9.57s-5.39-1.05-6.23-.89-.95,2.9-.94,3.11a13.55,13.55,0,0,0,.57,1.6s-2.71,1.08-2.81,1.55a9.91,9.91,0,0,0,.53,2.43s-1,.8-.89,1.74.28,2.53.95,2.64l2,.34s2.09,4.29,2.36,4.66a29.79,29.79,0,0,0,3.74,1.92" style="fill: rgb(255, 190, 157); transform-origin: 440.576px 251.743px; user-select: auto;" id="elyzme06tp19c" class="animable"></path><path d="M441.25,266.37a3.11,3.11,0,0,1-.61-.22c-.39-.17-1-.42-1.71-.77-.36-.17-.77-.37-1.21-.62a1.31,1.31,0,0,1-.33-.27c-.08-.12-.14-.23-.21-.35l-.4-.75L435,259.86l.13.1-1.59-.24-.41-.07a.76.76,0,0,1-.47-.27,2.17,2.17,0,0,1-.4-.86,11.64,11.64,0,0,1-.31-1.83,2.38,2.38,0,0,1,1-1.79l-.07.24c-.14-.43-.27-.87-.39-1.33-.06-.22-.11-.46-.15-.7a2.62,2.62,0,0,1,0-.41.5.5,0,0,1,.09-.28,1.36,1.36,0,0,1,.16-.17,12.81,12.81,0,0,1,2.71-1.38l-.13.31c-.17-.41-.34-.82-.49-1.25a2.43,2.43,0,0,1-.1-.37,2.52,2.52,0,0,1,0-.39c0-.23,0-.46.06-.7a6.68,6.68,0,0,1,.29-1.41,1.89,1.89,0,0,1,.4-.71.78.78,0,0,1,.45-.23h.4A55.4,55.4,0,0,1,442,247l-.31.25c0-.44,0-.92,0-1.41,0-2,.1-3.89.21-5.77,0-.47.06-.94.11-1.41a5.9,5.9,0,0,1,.1-.7,1.12,1.12,0,0,1,.37-.74,1.4,1.4,0,0,1,1.56-.22,1.75,1.75,0,0,1,.67,1.35c.33,3.5.64,6.74.92,9.62v0l2.49,10c.28,1.16.5,2.08.66,2.77a7.12,7.12,0,0,1,.19,1,5.43,5.43,0,0,1-.31-.95c-.19-.68-.45-1.59-.77-2.74l-2.66-9.95v0c-.29-2.87-.63-6.11-1-9.6a1.27,1.27,0,0,0-.43-1,.9.9,0,0,0-1,.15.69.69,0,0,0-.22.46c0,.22-.06.44-.08.67,0,.45-.08.91-.1,1.38-.11,1.87-.16,3.79-.21,5.76,0,.48,0,1,0,1.4v.31l-.31-.06c-2-.36-3.92-.75-5.78-.9h-.31a.3.3,0,0,0-.17.08,1.53,1.53,0,0,0-.27.51,7.27,7.27,0,0,0-.28,1.31l-.06.67a1,1,0,0,0,.08.57c.14.41.3.83.46,1.23l.09.22-.22.1a13.2,13.2,0,0,0-2.58,1.28.38.38,0,0,0-.09.09l-.07,0h0l.08,0h0v0a1.08,1.08,0,0,0,0,.3c0,.22.08.45.13.67.11.44.23.88.37,1.3l0,.14-.12.1a2,2,0,0,0-.82,1.43,14,14,0,0,0,.27,1.74,2.11,2.11,0,0,0,.31.71.35.35,0,0,0,.25.14l.41.07,1.58.27.09,0,0,.08c.64,1.31,1.21,2.5,1.72,3.56l.38.74c.06.12.12.24.18.34a1.48,1.48,0,0,0,.26.21c.41.25.81.46,1.17.65l1.66.85A3.76,3.76,0,0,1,441.25,266.37Z" style="fill: rgb(235, 153, 110); transform-origin: 440.46px 251.613px; user-select: auto;" id="el2ivfg4b7717" class="animable"></path><path d="M435.33,251.08s.27,0,.66-.13a7.93,7.93,0,0,1,1.52-.36,3,3,0,0,1,1.48.21c.36.15.55.32.6.28s-.09-.29-.47-.53a2.56,2.56,0,0,0-1.65-.36,4.33,4.33,0,0,0-1.58.49C435.51,250.87,435.3,251,435.33,251.08Z" style="fill: rgb(235, 153, 110); transform-origin: 437.463px 250.629px; user-select: auto;" id="elf86st2j33ec" class="animable"></path><path d="M437.5,250.38c.08-.08,0-.3-.17-.51s-.39-.32-.48-.25,0,.3.17.51S437.41,250.45,437.5,250.38Z" style="fill: rgb(235, 153, 110); transform-origin: 437.173px 250px; user-select: auto;" id="elxxjjh26xin" class="animable"></path><path d="M432.9,255.05a7.23,7.23,0,0,0,2.28-.49,1.58,1.58,0,0,1,1.41.14c.3.23.33.5.39.5s.14-.33-.19-.71a1.31,1.31,0,0,0-.73-.38,2.29,2.29,0,0,0-1,.06A6.62,6.62,0,0,0,432.9,255.05Z" style="fill: rgb(235, 153, 110); transform-origin: 434.967px 254.64px; user-select: auto;" id="ely086dev9pvl" class="animable"></path><path d="M434.35,257.5c-.11,0,0,.6.3,1.25s.57,1.14.68,1.1,0-.6-.31-1.25S434.45,257.46,434.35,257.5Z" style="fill: rgb(235, 153, 110); transform-origin: 434.84px 258.675px; user-select: auto;" id="el2krttnf78vt" class="animable"></path><path d="M439.85,291.61s4.27,16.62,7.41,18.28S457,297.24,457,297.24l-2.52-10.61-13.93,4.72" style="fill: rgb(255, 190, 157); transform-origin: 448.425px 298.327px; user-select: auto;" id="elvyrchya9vc" class="animable"></path><path d="M443.92,300.69A59.73,59.73,0,0,1,442.6,293a56.92,56.92,0,0,1-.81-7.75,59.73,59.73,0,0,1,1.32,7.67A56.92,56.92,0,0,1,443.92,300.69Z" style="fill: rgb(235, 153, 110); transform-origin: 442.855px 292.97px; user-select: auto;" id="elqydhootfsoo" class="animable"></path><path d="M466.75,310.46a.71.71,0,0,0-.33.77.66.66,0,0,0,.77.54.68.68,0,0,0,.43-.73.73.73,0,0,0-.29-.52.58.58,0,0,0-.58-.06" style="fill: rgb(255, 255, 255); transform-origin: 467.014px 311.095px; user-select: auto;" id="elwyyaqtqjpt" class="animable"></path><path d="M383.27,326.45s-.72,28.5,13,29.83,44.34-3.1,44.34-3.1l-8.87,56.31,20,4,20.56-66.12a18,18,0,0,0-.85-12.88h0a18,18,0,0,0-17.2-10.42l-37.7,0Z" style="fill: rgb(38, 50, 56); transform-origin: 428.186px 368.77px; user-select: auto;" id="elmcrjb1571jp" class="animable"></path><path d="M361.23,327.46s-5.16,26.59,12.41,28.82c13.7,1.74,43.51.83,43.51.83l-11.33,53.82,28,2.55,15.78-66.12a18,18,0,0,0-.84-12.88h0a18,18,0,0,0-17.21-10.42Z" style="fill: rgb(38, 50, 56); transform-origin: 405.468px 368.759px; user-select: auto;" id="elcmhed70eqyo" class="animable"></path><path d="M432.12,350l-.26.11-.78.31c-.69.27-1.71.67-3,1.24a65.42,65.42,0,0,0-10.83,6l.06-.09c-2.59,12.32-6.56,31.24-11.23,53.45l-.22-.3L432,413.05l1.86.17-.28.2c6.14-25.84,11.67-49.14,15.68-66,.86-4.21,1-8.21.05-11.49a16.43,16.43,0,0,0-4.49-7.38,13.93,13.93,0,0,0-4.64-2.94,10.81,10.81,0,0,0-1.38-.43l-.47-.15.49.1a8.64,8.64,0,0,1,1.39.39,13.39,13.39,0,0,1,4.75,2.88,16.55,16.55,0,0,1,4.63,7.45c1,3.34.87,7.4,0,11.64-4,16.88-9.44,40.2-15.52,66.06l-.05.22-.23,0-1.86-.17-26.16-2.39-.29,0,.06-.28c4.76-22.19,8.8-41.1,11.44-53.41v-.06l.05,0A63.27,63.27,0,0,1,428,351.47c1.32-.56,2.36-.93,3.05-1.18l.8-.26Z" style="fill: rgb(69, 90, 100); transform-origin: 427.886px 369.4px; user-select: auto;" id="eluqttpelmcco" class="animable"></path><path d="M426.35,348.24c.1.13-2.24,1.87-4.76,4.41s-4.27,4.87-4.39,4.77a20.71,20.71,0,0,1,4-5.14A21,21,0,0,1,426.35,348.24Z" style="fill: rgb(69, 90, 100); transform-origin: 421.777px 352.832px; user-select: auto;" id="elbjjrdspqdb" class="animable"></path><path d="M413.77,232.53a1.32,1.32,0,0,0-1-.95,1.63,1.63,0,0,0-1.42.46l.38-.24a1.9,1.9,0,0,0-1,1.65,4.38,4.38,0,0,0,.39,2q.24.63.54,1.26a1.13,1.13,0,0,0,.47.58.8.8,0,0,0,1-.42,1.65,1.65,0,0,0,0-1.18,11.89,11.89,0,0,1-.35-1.16c-.05-.29,0-.65.28-.75s.29,0,.43-.06a.54.54,0,0,0,.36-.48A2.64,2.64,0,0,0,413.77,232.53Z" style="fill: rgb(69, 90, 100); transform-origin: 412.288px 234.448px; user-select: auto;" id="ele1uyew22x84" class="animable"></path><path d="M437.51,264.45a3.71,3.71,0,0,1,.29.75c.17.5.41,1.25.68,2.22a42.77,42.77,0,0,1,1.51,8.42,15.35,15.35,0,0,1-.6,5.9,5.59,5.59,0,0,1-1.94,2.75,5.47,5.47,0,0,1-3.43.94,5.72,5.72,0,0,1-.92-.08,3.72,3.72,0,0,1-.92-.17c-.3-.09-.62-.16-.91-.27l-.86-.43a11.62,11.62,0,0,1-3-2.51,31.4,31.4,0,0,1-4.32-6.81,95.51,95.51,0,0,1-5.4-14.56c-1.33-4.58-2.33-8.76-3.09-12.28s-1.3-6.4-1.64-8.38c-.17-1-.29-1.77-.36-2.3a4,4,0,0,1-.09-.8,4.94,4.94,0,0,1,.19.79c.11.56.27,1.32.46,2.27.4,2,1,4.83,1.8,8.34s1.84,7.66,3.19,12.22a98.93,98.93,0,0,0,5.4,14.47,31.15,31.15,0,0,0,4.24,6.7,11.23,11.23,0,0,0,2.82,2.41A7,7,0,0,0,434,285a5,5,0,0,0,3.16-.84,5.17,5.17,0,0,0,1.8-2.51,15.25,15.25,0,0,0,.63-5.74,45.9,45.9,0,0,0-1.34-8.38c-.24-.94-.43-1.69-.58-2.25A4.66,4.66,0,0,1,437.51,264.45Z" style="fill: rgb(69, 90, 100); transform-origin: 426.283px 261.141px; user-select: auto;" id="el07mveco7bpod" class="animable"></path><path d="M461.78,326.77a5.15,5.15,0,0,1-.19.75c-.16.53-.37,1.23-.64,2.11-.59,1.88-1.42,4.5-2.43,7.72a5.17,5.17,0,0,1-.52,1.26,1.93,1.93,0,0,1-1.2.87,2.94,2.94,0,0,1-2.8-1,12.85,12.85,0,0,1-1.58-2.74c-.47-.95-1-1.91-1.6-2.87a37.36,37.36,0,0,0-4.25-5.59,36.67,36.67,0,0,0-2.67-2.61c-.94-.84-2-1.6-2.95-2.49a9.62,9.62,0,0,1-2.42-3.11,11.59,11.59,0,0,1-.85-3.73c-.17-2.45-.34-4.82-.49-7.08-.38-4.49-.72-8.54-1-12s-.48-6.17-.58-8.08c-.06-.95-.09-1.7-.1-2.2a3.78,3.78,0,0,1,0-.77,4.21,4.21,0,0,1,.1.76c0,.56.12,1.28.2,2.2.18,2,.43,4.7.75,8.06s.74,7.45,1.12,12q.24,3.39.51,7.07a11.47,11.47,0,0,0,.82,3.56,9.26,9.26,0,0,0,2.3,2.94c.95.87,2,1.64,2.95,2.49s1.85,1.74,2.69,2.65a36.59,36.59,0,0,1,4.29,5.69,32.43,32.43,0,0,1,1.6,2.92,12.46,12.46,0,0,0,1.5,2.65,2.51,2.51,0,0,0,2.38.94c.86-.17,1.21-1,1.46-1.85l2.59-7.67c.3-.87.54-1.56.73-2.08A3.84,3.84,0,0,1,461.78,326.77Z" style="fill: rgb(69, 90, 100); transform-origin: 448.635px 312.371px; user-select: auto;" id="elv9ik581b4m" class="animable"></path><path d="M434.31,285.2l1.33,2.2.93-2.65A5.75,5.75,0,0,1,434.31,285.2Z" style="fill: rgb(69, 90, 100); transform-origin: 435.44px 286.075px; user-select: auto;" id="elim0fui8vaw" class="animable"></path><path d="M465.66,330.11l-8.29-4.85a1,1,0,0,1-.48-1.2l5.53-18.4a1,1,0,0,1,1.57-.57l8,5.13a1.05,1.05,0,0,1,.43,1.17l-5.2,18.11A1,1,0,0,1,465.66,330.11Z" style="fill: rgb(38, 50, 56); transform-origin: 464.65px 317.594px; user-select: auto;" id="elbso8yqvergw" class="animable"></path><path d="M465.66,330.11a1.23,1.23,0,0,0,.62.11,1.06,1.06,0,0,0,.65-.35,2.56,2.56,0,0,0,.36-1c.46-1.62,1.08-3.85,1.84-6.57s1.73-6.09,2.77-9.74c.12-.45.28-.94.38-1.37a.88.88,0,0,0-.14-.61,1.53,1.53,0,0,0-.52-.43l-2.56-1.65c-1.74-1.09-3.57-2.33-5.38-3.42a.9.9,0,0,0-1.11.6c-.15.52-.31,1-.46,1.54-.31,1-.62,2-.91,3L459.47,316c-.56,1.82-1.08,3.55-1.58,5.17-.24.81-.48,1.6-.71,2.35-.1.39-.29.74-.19,1.06a1.14,1.14,0,0,0,.67.72l5.87,3.49,1.58,1c.37.22.55.35.55.35s-.21-.09-.58-.3l-1.61-.91-5.92-3.4a1.3,1.3,0,0,1-.78-.85,1.22,1.22,0,0,1,0-.63l.17-.56c.22-.76.46-1.54.7-2.35.48-1.63,1-3.36,1.54-5.19s1.12-3.74,1.71-5.73l.91-3c.15-.52.31-1,.47-1.55a1.19,1.19,0,0,1,1.49-.8c2,1.15,3.68,2.34,5.45,3.46l2.56,1.65a1.75,1.75,0,0,1,.61.52,1.2,1.2,0,0,1,.18.8c-.12.52-.26.95-.39,1.42l-2.83,9.72c-.81,2.71-1.46,4.93-1.94,6.54a2.4,2.4,0,0,1-.41,1,1.08,1.08,0,0,1-.72.35,1,1,0,0,1-.48-.08A.58.58,0,0,1,465.66,330.11Z" style="fill: rgb(69, 90, 100); transform-origin: 464.649px 317.575px; user-select: auto;" id="el83hkgn809m" class="animable"></path><path d="M464,305.26a1,1,0,0,0-.39.71c-.18.66-.4,1.41-.64,2.27-.62,2.05-1.4,4.6-2.25,7.43s-1.69,5.36-2.34,7.4c-.14.48-.31.9-.38,1.27a1.67,1.67,0,0,0,.05,1,1.23,1.23,0,0,0,.53.62s-.38,0-.64-.57a1.8,1.8,0,0,1-.12-1,12.21,12.21,0,0,1,.35-1.3c.62-2.05,1.4-4.61,2.25-7.44s1.69-5.36,2.34-7.4c.28-.85.52-1.59.74-2.23a1.09,1.09,0,0,1,.3-.58C463.93,305.26,464,305.25,464,305.26Z" style="fill: rgb(69, 90, 100); transform-origin: 460.898px 315.609px; user-select: auto;" id="elvybeyi3v49p" class="animable"></path><path d="M399.32,296.13s16,28.7,18.86,28.57,42.62-.88,42.62-.88V313l-33.14-5.5-9.6-20.84Z" style="fill: rgb(255, 190, 157); transform-origin: 430.06px 305.68px; user-select: auto;" id="el8uzqnroc86l" class="animable"></path><path d="M460.8,313s8.22.9,9.11,1.43,3.4,13.41,2.86,15-6.79,4.64-8,3.75,1.38-2.54,1.38-2.54l.71-1.75-6-5.06Z" style="fill: rgb(255, 190, 157); transform-origin: 466.823px 323.17px; user-select: auto;" id="elqw4ct28yal9" class="animable"></path><polyline points="387.86 275.29 399.24 299.82 420.75 290.23 408.77 264.36" style="fill: rgb(255, 114, 94); transform-origin: 404.305px 282.09px; user-select: auto;" id="eleise5m3gr1n" class="animable"></polyline><path d="M410.49,266.3a3.31,3.31,0,0,1,.23.44l.61,1.31,2.19,4.93c1.86,4.29,4.45,10.24,7.46,17.16l.1.22-.22.1-10.74,4.89L399.86,300l-.21.09-.11-.19c-3.83-6.71-6.77-12.68-8.74-17-1-2.15-1.72-3.87-2.22-5.05l-.55-1.37a3.43,3.43,0,0,1-.17-.48s.1.14.25.45.37.78.62,1.33c.58,1.21,1.37,2.89,2.36,5,2,4.24,5,10.17,8.88,16.85l-.32-.1,10.26-4.67L420.65,290l-.12.32-7.29-17.22c-.87-2.1-1.56-3.78-2.06-5-.22-.55-.4-1-.53-1.33A2.31,2.31,0,0,1,410.49,266.3Z" style="fill: rgb(38, 50, 56); transform-origin: 404.47px 283.195px; user-select: auto;" id="elu5ubm88heqc" class="animable"></path><path d="M464.64,313.44a12.05,12.05,0,0,1-1.73-.18l-4.68-.68c-4-.6-9.41-1.46-15.43-2.44s-11.19-1.85-15.08-2.53l.14,0a8.82,8.82,0,0,0-3.1,3.7c-.47,1.07-.64,1.7-.68,1.68a1.47,1.47,0,0,1,.08-.46,12.41,12.41,0,0,1,.41-1.3,8.67,8.67,0,0,1,3.07-3.93l.07,0h.07c3.91.59,9.24,1.43,15.11,2.39,6,1,11.46,1.9,15.4,2.59l4.66.84A10.21,10.21,0,0,1,464.64,313.44Z" style="fill: rgb(235, 153, 110); transform-origin: 444.36px 310.37px; user-select: auto;" id="el5u97d8bxe3" class="animable"></path><path d="M397.62,280.85a21.29,21.29,0,0,1,.5-6.63,10.49,10.49,0,0,1,0,3.33A11.09,11.09,0,0,1,397.62,280.85Z" style="fill: rgb(250, 250, 250); transform-origin: 397.901px 277.535px; user-select: auto;" id="el8lfz93lgkfx" class="animable"></path><path d="M408.47,275a6.85,6.85,0,0,1-2.25-1.4c-1.16-.89-2-1.7-1.94-1.82a7,7,0,0,1,2.25,1.41C407.69,274,408.55,274.85,408.47,275Z" style="fill: rgb(250, 250, 250); transform-origin: 406.376px 273.39px; user-select: auto;" id="el4myypgyv64y" class="animable"></path><path d="M405.8,284c-.14.06-.58-.76-1-1.81s-.66-2-.52-2,.58.76,1,1.81A4.38,4.38,0,0,1,405.8,284Z" style="fill: rgb(250, 250, 250); transform-origin: 405.02px 282.097px; user-select: auto;" id="elusptlk79lts" class="animable"></path><path d="M400.67,291.05c-.1.11-.92-.46-1.83-1.27s-1.59-1.55-1.49-1.66.91.46,1.83,1.27S400.76,290.94,400.67,291.05Z" style="fill: rgb(250, 250, 250); transform-origin: 399.009px 289.585px; user-select: auto;" id="ellivv5cz21u" class="animable"></path><path d="M406.88,291.78c.11.09-.49.94-1.33,1.89s-1.61,1.64-1.72,1.55.49-.94,1.33-1.9S406.78,291.68,406.88,291.78Z" style="fill: rgb(250, 250, 250); transform-origin: 405.355px 293.499px; user-select: auto;" id="elyhg4swtokt8" class="animable"></path><path d="M412.53,288.49a10.8,10.8,0,0,1,0-4.71,10.8,10.8,0,0,1,0,4.71Z" style="fill: rgb(250, 250, 250); transform-origin: 412.53px 286.135px; user-select: auto;" id="elrjbye8w4om8" class="animable"></path></g><g id="freepik--character-1--inject-71" class="animable" style="transform-origin: 90.1838px 327.111px; user-select: auto;"><polygon points="105.02 426.36 102.78 406.94 84.77 411.98 89.32 430.61 105.02 426.36" style="fill: rgb(163, 105, 87); transform-origin: 94.895px 418.775px; user-select: auto;" id="ellbg6j1cuqoj" class="animable"></polygon><path d="M105.22,426.31l3,22.64,7.57,17.21a2.34,2.34,0,0,1-1.35,3.15h0a2.35,2.35,0,0,1-2.12-.28c-4-2.76-18.5-13-18.63-14.65-.15-1.93-4.8-23.67-4.8-23.67Z" style="fill: rgb(255, 114, 94); transform-origin: 102.44px 447.878px; user-select: auto;" id="elcqituio7e0s" class="animable"></path><g id="ele9wxj9z1n9" style="user-select: auto;"><g style="opacity: 0.6; transform-origin: 103.99px 461.163px; user-select: auto;" class="animable"><path d="M114.49,469.31l-21-16.45.15.95a3.48,3.48,0,0,0,1.18,2.13c1.7,1.46,6.48,5.38,17.47,13.1a2.34,2.34,0,0,0,2.19.27Z" style="fill: rgb(255, 255, 255); transform-origin: 103.99px 461.163px; user-select: auto;" id="elrc3wwbdp60e" class="animable"></path></g></g><g id="el5afto80h2t" style="user-select: auto;"><g style="opacity: 0.6; transform-origin: 96.4413px 446.065px; user-select: auto;" class="animable"><path d="M97,444.85a1.41,1.41,0,0,1,.67,1.76,1.36,1.36,0,0,1-1.75.68,1.5,1.5,0,0,1-.7-1.87,1.43,1.43,0,0,1,1.9-.51" style="fill: rgb(255, 255, 255); transform-origin: 96.4413px 446.065px; user-select: auto;" id="ellknccix2ahm" class="animable"></path></g></g><path d="M107.78,460.26a7.19,7.19,0,0,1,1.7-2.07,7.06,7.06,0,0,1,2.52-.9c0-.06-.3-.19-.84-.18a3.71,3.71,0,0,0-3.27,2.3C107.7,459.91,107.72,460.25,107.78,460.26Z" style="fill: rgb(38, 50, 56); transform-origin: 109.869px 458.685px; user-select: auto;" id="eljtucvtoqmgj" class="animable"></path><path d="M109.86,463c.12.08.73-.77,1.85-1.29a20,20,0,0,1,2.16-.63,2.64,2.64,0,0,0-2.38.18C110.22,461.89,109.73,463,109.86,463Z" style="fill: rgb(38, 50, 56); transform-origin: 111.855px 461.942px; user-select: auto;" id="elkb2ebnu11b" class="animable"></path><path d="M104.17,456.86a24.82,24.82,0,0,1,2.72-2.18,26,26,0,0,1,3.22-1.31,6.41,6.41,0,0,0-5.94,3.49Z" style="fill: rgb(38, 50, 56); transform-origin: 107.14px 455.113px; user-select: auto;" id="elqokl7ybbhpk" class="animable"></path><path d="M102.67,450.06c.09.12,1.25-.6,2.86-.91s3-.13,3-.28a5.83,5.83,0,0,0-5.85,1.19Z" style="fill: rgb(38, 50, 56); transform-origin: 105.6px 449.308px; user-select: auto;" id="ely3hyg07clug" class="animable"></path><path d="M101.61,443.43a11.5,11.5,0,0,1,3-1,11.56,11.56,0,0,1,3.11.28c0-.05-.26-.3-.83-.52a5,5,0,0,0-2.34-.26,5.09,5.09,0,0,0-2.21.82C101.79,443.08,101.57,443.39,101.61,443.43Z" style="fill: rgb(38, 50, 56); transform-origin: 104.663px 442.66px; user-select: auto;" id="elojbvkbxjxt" class="animable"></path><path d="M104.32,441.15a1.79,1.79,0,0,0-.1-.85,6,6,0,0,0-1-2.13,2.68,2.68,0,0,0-1.33-1.08.94.94,0,0,0-1,.37,1.54,1.54,0,0,0-.2,1.08,3.31,3.31,0,0,0,3.34,2.57,3.83,3.83,0,0,0,3.41-2.57,1.3,1.3,0,0,0-.11-1.1.93.93,0,0,0-1-.34,3.32,3.32,0,0,0-1.36,1,6.76,6.76,0,0,0-1.27,2,2.09,2.09,0,0,0-.22.83,10.89,10.89,0,0,1,1.74-2.58,3,3,0,0,1,1.22-.85.5.5,0,0,1,.56.17,1,1,0,0,1,0,.73,3.43,3.43,0,0,1-3,2.2,2.88,2.88,0,0,1-2.87-2.14,1.12,1.12,0,0,1,.1-.76.49.49,0,0,1,.56-.21,2.31,2.31,0,0,1,1.14.89A8.64,8.64,0,0,1,104.32,441.15Z" style="fill: rgb(38, 50, 56); transform-origin: 104.089px 439.106px; user-select: auto;" id="el2tcksurysgf" class="animable"></path><path d="M63.36,315.12,63,320s-4.14,7.84-4.51,14.85c-.22,4.08-.32,10.09-.35,14.41a18.29,18.29,0,0,0,2.77,9.84l8.3,13.29-1.15,15,15,30.09,22.24-5.63-2.64-55.55-9-29.33-1.7-13.94Z" style="fill: rgb(38, 50, 56); transform-origin: 81.7196px 365.255px; user-select: auto;" id="eloa6ku2wmr1f" class="animable"></path><path d="M108.17,312.06l.4,6.39s17.86-38.05,42.23-42.74c15.83-3,22.08,14.21,16.52,27.91-3.35,8.26-18.5,22.07-18.4,21.72s-9.37,4.2-9.37,4.2-9.39,22.79-12.6,26.14c-2.2,2.29-25.42,1.47-25.42,1.47l-7.3-15.09-2.94-28.91Z" style="fill: rgb(38, 50, 56); transform-origin: 130.302px 316.329px; user-select: auto;" id="elnfvfc46dxk" class="animable"></path><path d="M77.28,352a6.62,6.62,0,0,1-.41,1.37L75.61,357c-1.06,3.11-2.44,7.43-3.76,12.26s-2.31,9.26-3,12.48c-.31,1.53-.58,2.81-.78,3.81a6.57,6.57,0,0,1-.34,1.39,8.68,8.68,0,0,1,.14-1.42c.12-.92.33-2.23.62-3.85.57-3.24,1.52-7.69,2.84-12.54s2.76-9.17,3.91-12.25c.57-1.55,1.06-2.79,1.42-3.63A8.66,8.66,0,0,1,77.28,352Z" style="fill: rgb(69, 90, 100); transform-origin: 72.505px 369.47px; user-select: auto;" id="el8zhxpiibz2" class="animable"></path><path d="M71.74,346a30.23,30.23,0,0,1-.35,3.62c-.26,2.23-.55,5.31-.72,8.72s-.17,6.51-.14,8.75a30.56,30.56,0,0,1,0,3.64,3.43,3.43,0,0,1-.16-1c-.08-.62-.15-1.53-.21-2.65a84.28,84.28,0,0,1,0-8.79,85.42,85.42,0,0,1,.87-8.75c.17-1.11.34-2,.47-2.62A3.89,3.89,0,0,1,71.74,346Z" style="fill: rgb(69, 90, 100); transform-origin: 70.8927px 358.365px; user-select: auto;" id="elbbngu0upy06" class="animable"></path><path d="M105.37,410.71a1.14,1.14,0,0,1,0-.27c0-.21,0-.47-.06-.79,0-.74-.12-1.76-.2-3.06-.15-2.69-.37-6.52-.63-11.23-.48-9.52-1.14-22.61-1.87-37.07-.23-3.61-.15-7.18-.92-10.48a29.42,29.42,0,0,0-3.66-9,28.78,28.78,0,0,0-5.74-6.68,28.44,28.44,0,0,0-6.5-4.11,29.62,29.62,0,0,0-10.81-2.64,30.31,30.31,0,0,0-3,0l-.79,0a1.1,1.1,0,0,1-.27,0,21.25,21.25,0,0,1,4.12-.24,28.85,28.85,0,0,1,11,2.52,28.37,28.37,0,0,1,6.62,4.11,29,29,0,0,1,5.87,6.76,29.6,29.6,0,0,1,3.76,9.15c.79,3.38.71,7,.94,10.57.67,14.46,1.28,27.55,1.72,37.07.19,4.72.35,8.55.46,11.24,0,1.3.08,2.32.1,3.06,0,.33,0,.59,0,.8A1.1,1.1,0,0,1,105.37,410.71Z" style="fill: rgb(69, 90, 100); transform-origin: 88.215px 367.917px; user-select: auto;" id="el92zr7nq13s" class="animable"></path><path d="M95.19,331.67a58.58,58.58,0,0,1,4.76-6.16,58.3,58.3,0,0,1,5.15-5.83,57.59,57.59,0,0,1-4.75,6.16A59.07,59.07,0,0,1,95.19,331.67Z" style="fill: rgb(69, 90, 100); transform-origin: 100.145px 325.675px; user-select: auto;" id="el3c66nx8yzqx" class="animable"></path><path d="M144.14,293.3a31.22,31.22,0,0,1-2,2.57c-1.23,1.58-2.88,3.78-4.55,6.32s-3.24,4.86-3.52,6.8a6,6,0,0,0,.31,3.11,1.77,1.77,0,0,1-.44-.77,5.07,5.07,0,0,1-.24-2.39,9.63,9.63,0,0,1,1.2-3.36c.65-1.17,1.41-2.4,2.25-3.68a64.73,64.73,0,0,1,4.7-6.26A15.39,15.39,0,0,1,144.14,293.3Z" style="fill: rgb(69, 90, 100); transform-origin: 138.896px 302.7px; user-select: auto;" id="el60w3qgxjlzt" class="animable"></path><path d="M143.17,290.62c.12.1-.75,1.18-1.29,2.76s-.55,3-.71,3a6,6,0,0,1,2-5.74Z" style="fill: rgb(69, 90, 100); transform-origin: 142.118px 293.5px; user-select: auto;" id="el7gji53mem06" class="animable"></path><path d="M92.84,371.12a38.07,38.07,0,0,1,2.5-5.83,38.36,38.36,0,0,1,3-5.6,38,38,0,0,1-2.49,5.82A38.91,38.91,0,0,1,92.84,371.12Z" style="fill: rgb(69, 90, 100); transform-origin: 95.59px 365.405px; user-select: auto;" id="elmma0ehtb29" class="animable"></path><path d="M80.25,362.49a17.49,17.49,0,0,1,2.06,5.6,16.88,16.88,0,0,1-2.06-5.6Z" style="fill: rgb(69, 90, 100); transform-origin: 81.28px 365.29px; user-select: auto;" id="elw5tgwks0wrj" class="animable"></path><path d="M99.81,212.93a6.54,6.54,0,1,1,8,9.72,4.4,4.4,0,0,1-3.79,7.94,4.29,4.29,0,0,1-4.41,2.78,7.55,7.55,0,0,1-4.84-2.62,11.81,11.81,0,0,1-2.86-10.84,10.47,10.47,0,0,1,8.1-7.57" style="fill: rgb(38, 50, 56); transform-origin: 101.651px 221.755px; user-select: auto;" id="el4xb9v4ddsu" class="animable"></path><path d="M102.78,210s0,0,.08.13a3.35,3.35,0,0,1,.18.4,5.86,5.86,0,0,1,.36,1.62,6.42,6.42,0,0,1-.28,2.51,6.31,6.31,0,0,1-1.68,2.72l0-.16a6.91,6.91,0,0,1,1.25,3,6.7,6.7,0,0,1-3.13,6.87,6.72,6.72,0,0,1-2.22.89,4.14,4.14,0,0,1-.65.08h-.23s.31,0,.86-.18a7.16,7.16,0,0,0,2.15-.95,6.74,6.74,0,0,0,1.78-9.58l-.06-.08.07-.08a6.07,6.07,0,0,0,1.65-2.6,6.78,6.78,0,0,0,.33-2.44A7.76,7.76,0,0,0,102.78,210Z" style="fill: rgb(69, 90, 100); transform-origin: 99.9421px 219.03px; user-select: auto;" id="el4tengbtdfm" class="animable"></path><path d="M121.6,208.68a5,5,0,0,1-.7.41c-.45.26-1.12.61-1.94,1-1.66.85-4,2-6.56,3.13s-5,2.12-6.71,2.79c-.86.33-1.57.59-2.06.76a6.38,6.38,0,0,1-.77.24,4.79,4.79,0,0,1,.74-.33l2-.83c1.72-.71,4.09-1.7,6.67-2.85s4.91-2.25,6.58-3.06l2-1A5.3,5.3,0,0,1,121.6,208.68Z" style="fill: rgb(255, 114, 94); transform-origin: 112.23px 212.845px; user-select: auto;" id="eliirfbrsbsm" class="animable"></path><path d="M115.46,202.58c.05,0-2.53,2.52-5.77,5.52s-5.89,5.39-5.93,5.34,2.53-2.52,5.77-5.52S115.42,202.54,115.46,202.58Z" style="fill: rgb(255, 114, 94); transform-origin: 109.61px 208.01px; user-select: auto;" id="eljk1ejpbk1s" class="animable"></path><path d="M87.33,192.39c0-5.06-6-5.31-9.11-4-1.65-2.25-2.83-3.39-6.61-3.63a11.74,11.74,0,0,0-9.16,4,10.08,10.08,0,0,0-1.13,10c.47,1.07,1.14,2.14,1,3.3-.2,1.67-1.91,2.65-3,3.92a6.4,6.4,0,0,0-.29,7.82c1.07,1.43,2.78,2.43,3.36,4.13.47,1.42,0,3,.11,4.47a7.45,7.45,0,0,0,4.82,6.16,11.51,11.51,0,0,0,8.07-.17" style="fill: rgb(38, 50, 56); transform-origin: 72.5831px 206.982px; user-select: auto;" id="elic0uhenxh9" class="animable"></path><path d="M65.2,245.5l9.48-4.25.33-6.34s-7.13-1.06-8.77-10.31c-.82-4.6-.72-12.17-.44-18.37.25-5.57,6.15-11.24,11.71-10.75l18,3.11v3l.18,41.26,15.06,6.33L83.88,269.36Z" style="fill: rgb(163, 105, 87); transform-origin: 87.975px 232.405px; user-select: auto;" id="elsbcgr9qh1uo" class="animable"></path><path d="M69.17,212.8A1.19,1.19,0,0,0,70.34,214a1.13,1.13,0,0,0,1.21-1.09,1.19,1.19,0,0,0-1.17-1.18A1.13,1.13,0,0,0,69.17,212.8Z" style="fill: rgb(38, 50, 56); transform-origin: 70.36px 212.865px; user-select: auto;" id="elj7s8cq3546" class="animable"></path><path d="M67.51,210.14c.15.15,1-.53,2.32-.55s2.23.6,2.37.45-.09-.35-.5-.64a3.25,3.25,0,0,0-1.9-.55,3.11,3.11,0,0,0-1.84.63C67.57,209.79,67.44,210.07,67.51,210.14Z" style="fill: rgb(38, 50, 56); transform-origin: 69.8665px 209.505px; user-select: auto;" id="el1z0hgqibvpl" class="animable"></path><path d="M81.14,212.82A1.18,1.18,0,0,0,82.3,214a1.14,1.14,0,0,0,1.21-1.1,1.19,1.19,0,0,0-1.17-1.18A1.14,1.14,0,0,0,81.14,212.82Z" style="fill: rgb(38, 50, 56); transform-origin: 82.325px 212.86px; user-select: auto;" id="elo0tpkofvdad" class="animable"></path><path d="M80.1,210.16c.15.15,1.05-.53,2.33-.55s2.23.6,2.36.44-.09-.35-.5-.64a3.32,3.32,0,0,0-1.9-.55,3.11,3.11,0,0,0-1.84.64C80.16,209.8,80,210.09,80.1,210.16Z" style="fill: rgb(38, 50, 56); transform-origin: 82.4491px 209.52px; user-select: auto;" id="el6lv1745fhik" class="animable"></path><path d="M75.63,219.74a8.06,8.06,0,0,0-2.09-.34c-.33,0-.64-.09-.7-.31a1.71,1.71,0,0,1,.2-1c.3-.79.6-1.63.93-2.5a41.62,41.62,0,0,0,2-6.55,43.28,43.28,0,0,0-2.58,6.37c-.3.88-.6,1.72-.88,2.52a1.89,1.89,0,0,0-.15,1.28.82.82,0,0,0,.55.47,2.38,2.38,0,0,0,.56.07A8.52,8.52,0,0,0,75.63,219.74Z" style="fill: rgb(38, 50, 56); transform-origin: 74.1398px 214.427px; user-select: auto;" id="elhiedgszfc9m" class="animable"></path><path d="M75,234.91a23.62,23.62,0,0,0,12.37-3.54s-3.19,6.54-12.49,5.84Z" style="fill: rgb(124, 59, 41); transform-origin: 81.125px 234.316px; user-select: auto;" id="eljrom28wb8f" class="animable"></path><path d="M76.22,222.81a2.31,2.31,0,0,1,2.06-.89,2.11,2.11,0,0,1,1.46.75,1.34,1.34,0,0,1,.13,1.53,1.55,1.55,0,0,1-1.67.45,4.65,4.65,0,0,1-1.65-1,1.34,1.34,0,0,1-.38-.37.42.42,0,0,1,0-.47" style="fill: rgb(124, 59, 41); transform-origin: 78.0744px 223.321px; user-select: auto;" id="elv376efa6wpd" class="animable"></path><path d="M79.41,220.55c-.21,0-.19,1.39-1.36,2.39s-2.65.88-2.66,1.08.33.26,1,.27a3.43,3.43,0,0,0,2.22-.82,3,3,0,0,0,1.05-2C79.67,220.89,79.5,220.54,79.41,220.55Z" style="fill: rgb(38, 50, 56); transform-origin: 77.5251px 222.42px; user-select: auto;" id="elks1jzk4xs7c" class="animable"></path><path d="M79.68,205.14c.14.35,1.41.16,2.92.32s2.73.54,2.92.22c.09-.15-.13-.47-.63-.8a5.06,5.06,0,0,0-4.44-.41C79.9,204.7,79.63,205,79.68,205.14Z" style="fill: rgb(38, 50, 56); transform-origin: 82.6069px 204.971px; user-select: auto;" id="elkgsfrelkbco" class="animable"></path><path d="M67.92,206.43c.23.28,1.1,0,2.16-.07s2,.16,2.17-.15c.09-.14-.06-.43-.46-.7a3.12,3.12,0,0,0-3.49.17C67.93,206,67.81,206.29,67.92,206.43Z" style="fill: rgb(38, 50, 56); transform-origin: 70.078px 205.804px; user-select: auto;" id="eliic0wffn80l" class="animable"></path><path d="M63.35,195c1.42,3.27,4.66,8.18,8.2,8.61a10.5,10.5,0,0,0,9.43-4c.54,2.64,3.47,4.05,6.13,4.48a10.58,10.58,0,0,0,5.64-.38,5.6,5.6,0,0,0,3.57-4.14c.29-1.88-2.39-6.51-4.27-6.87" style="fill: rgb(38, 50, 56); transform-origin: 79.8458px 198.504px; user-select: auto;" id="elbprkrawp8ph" class="animable"></path><path d="M87.75,201.52a5.8,5.8,0,0,0-.13,4.39,5.88,5.88,0,0,0,3,3.21,6.91,6.91,0,0,0-1,5.95,16.23,16.23,0,0,0,2.87,5.53s-3.19,4.61,3.23,8c0,0,4.51-1.4,2.5-8.2a2,2,0,0,1,.08-1.48,2.57,2.57,0,0,1,1.11-.88,7.38,7.38,0,0,0,2.92-9.95,4.7,4.7,0,0,1-.63-1.39c-.13-.76-.71-2.76-.45-3.48,1.38-3.81-.39-8.54-4.86-10.89-3.58-1.88-8.06-2.19-10.8.78" style="fill: rgb(38, 50, 56); transform-origin: 94.4003px 209.748px; user-select: auto;" id="el4yzd0hs9lkg" class="animable"></path><path d="M51.36,261c1.28-11.12,8.41-13.61,8.41-13.61l-1.25,62.8L41.87,352l-14.25-4.13S50.07,272.11,51.36,261Z" style="fill: rgb(255, 114, 94); transform-origin: 43.695px 299.695px; user-select: auto;" id="elneszbi60f6a" class="animable"></path><path d="M120.61,255.29s4.1,9.34,4.1,14.26,4.92,36.76,0,43.51-14.57,6.48-17.32,6.26c-3.75-.32-21.25-32.67-20.53-33.09l9.84-2.14s6.89.43,10.18,3.21,6.5-.43,6.5-.43L120.32,257" style="fill: rgb(255, 114, 94); transform-origin: 106.868px 287.346px; user-select: auto;" id="elrd3rt7xhmf" class="animable"></path><path d="M106.9,247.38s11.26,3.82,13.71,7.91-11.71,56.56-11.71,56.56l-45.54,3.27s-3.59-.66-4.57-3.92,1-63.82,1-63.82L71.52,242s6.37,6.53,10.28,7.67S106.9,247.38,106.9,247.38Z" style="fill: rgb(255, 114, 94); transform-origin: 89.7063px 278.56px; user-select: auto;" id="elr3l0d77ep8k" class="animable"></path><path d="M62.62,261.8a1.8,1.8,0,0,1,.05.54c0,.41,0,.93,0,1.55,0,1.35,0,3.3,0,5.71a184.7,184.7,0,0,1-1.4,18.77c-.46,3.65-1,7.12-1.57,10.25A44.66,44.66,0,0,0,58.61,307a11.65,11.65,0,0,0,1.31,5.42,15.26,15.26,0,0,0,1.17,1.72,2,2,0,0,1-.41-.37,7.77,7.77,0,0,1-.94-1.25A11.3,11.3,0,0,1,58.25,307a41.59,41.59,0,0,1,1-8.42c.54-3.13,1.07-6.59,1.52-10.23.92-7.28,1.35-13.92,1.55-18.72.08-2.35.15-4.28.2-5.7,0-.62,0-1.14,0-1.55A2.34,2.34,0,0,1,62.62,261.8Z" style="fill: rgb(38, 50, 56); transform-origin: 60.4616px 287.97px; user-select: auto;" id="elwxqq7qaxpe" class="animable"></path><path d="M106.88,289.92a21.46,21.46,0,0,0-1.57-1.91,8,8,0,0,0-2.16-1.49,10.64,10.64,0,0,0-3.12-.83,12.77,12.77,0,0,0-5.86.34,5,5,0,0,0-1.54.87c-.29.3-.47.46-.5.44s.09-.22.36-.59A4.48,4.48,0,0,1,94,285.68a12,12,0,0,1,6.07-.51,10.38,10.38,0,0,1,3.26.91,7.88,7.88,0,0,1,2.22,1.68,7.07,7.07,0,0,1,1.07,1.52C106.85,289.67,106.91,289.91,106.88,289.92Z" style="fill: rgb(38, 50, 56); transform-origin: 99.5063px 287.456px; user-select: auto;" id="eltpj8d3cw06" class="animable"></path><path d="M95.05,300c.08,0,.44,1.24,1.27,3.16a57.91,57.91,0,0,0,3.85,7.25,59.32,59.32,0,0,0,4.76,6.67,16.8,16.8,0,0,0,1.72,1.78,6.36,6.36,0,0,0,.74.51s-.37,0-.86-.35a11.65,11.65,0,0,1-1.87-1.69,49.39,49.39,0,0,1-8.68-14,24.66,24.66,0,0,1-.77-2.39A2.77,2.77,0,0,1,95.05,300Z" style="fill: rgb(38, 50, 56); transform-origin: 101.22px 309.685px; user-select: auto;" id="el9nyvqfnzspc" class="animable"></path><path d="M112.4,260.5a11,11,0,0,1,2.63-3.37,11.15,11.15,0,0,1,3.44-2.56c.09.12-1.41,1.29-3.08,2.93S112.52,260.59,112.4,260.5Z" style="fill: rgb(38, 50, 56); transform-origin: 115.437px 257.537px; user-select: auto;" id="eljgaj9e0owjc" class="animable"></path><path d="M58.21,249.09a10.25,10.25,0,0,1,3.56,3.07,10.22,10.22,0,0,1,2.28,4.11c-.14.07-1.06-1.81-2.68-3.78S58.11,249.21,58.21,249.09Z" style="fill: rgb(38, 50, 56); transform-origin: 61.1278px 252.681px; user-select: auto;" id="elsg8kd0bp3xl" class="animable"></path><path d="M62.68,263.57a1.53,1.53,0,0,1,.49,0l1.41.09,5.18.4c4.36.32,10.4.69,17.08.88s12.73.16,17.11.08l5.19-.11h1.41a1.56,1.56,0,0,1,.49,0,1.78,1.78,0,0,1-.49.07l-1.41.12c-1.22.09-3,.18-5.18.27-4.38.17-10.44.26-17.14.07s-12.73-.62-17.1-1c-2.18-.2-3.94-.4-5.16-.56l-1.4-.19A1.71,1.71,0,0,1,62.68,263.57Z" style="fill: rgb(250, 250, 250); transform-origin: 86.86px 264.548px; user-select: auto;" id="elnprfjso093n" class="animable"></path><path d="M74.44,281a8.48,8.48,0,0,1,1.41,0l3.83.17c3.24.15,7.71.32,12.66.41s9.42.06,12.66,0l3.84,0a7.92,7.92,0,0,1,1.41,0,7.12,7.12,0,0,1-1.41.16c-.9.07-2.21.14-3.83.2-3.25.13-7.73.21-12.68.13s-9.43-.32-12.67-.56c-1.61-.12-2.92-.24-3.83-.33A6.6,6.6,0,0,1,74.44,281Z" style="fill: rgb(250, 250, 250); transform-origin: 92.345px 281.536px; user-select: auto;" id="el64ilzrceaod" class="animable"></path><path d="M111.42,275.06a7.14,7.14,0,0,1,2-.25,42.51,42.51,0,0,1,5,.06,43.7,43.7,0,0,1,4.93.63,7,7,0,0,1,2,.53c0,.15-3.11-.38-6.95-.64S111.43,275.21,111.42,275.06Z" style="fill: rgb(250, 250, 250); transform-origin: 118.385px 275.41px; user-select: auto;" id="elt9pdam9auqf" class="animable"></path><path d="M50.73,267.47a15.86,15.86,0,0,1,5.76.55,15.73,15.73,0,0,1,5.38,2.12c-.07.14-2.43-.89-5.5-1.62S50.72,267.63,50.73,267.47Z" style="fill: rgb(250, 250, 250); transform-origin: 56.3px 268.781px; user-select: auto;" id="eluwsumzwg2up" class="animable"></path><path d="M115.07,294.08a19.34,19.34,0,0,1,6.08,1.05,19.1,19.1,0,0,1,5.65,2.48c-.07.14-2.57-1-5.8-2S115.05,294.24,115.07,294.08Z" style="fill: rgb(250, 250, 250); transform-origin: 120.935px 295.851px; user-select: auto;" id="eltu2ad3ug58" class="animable"></path><path d="M112.28,319.38a4.78,4.78,0,0,1-.09-1.19c0-.77,0-1.88-.12-3.24a72,72,0,0,0-4.21-20.85c-.46-1.28-.85-2.32-1.14-3a5,5,0,0,1-.38-1.13,6,6,0,0,1,.57,1.05c.34.69.79,1.71,1.3,3a61.78,61.78,0,0,1,3,10.3,61.13,61.13,0,0,1,1.19,10.67c0,1.37,0,2.48,0,3.25A6.4,6.4,0,0,1,112.28,319.38Z" style="fill: rgb(250, 250, 250); transform-origin: 109.37px 304.675px; user-select: auto;" id="elgilv1sxq14" class="animable"></path><path d="M59.3,308.63a9.12,9.12,0,0,1,1.54.19c1,.17,2.41.38,4.18.6a87.55,87.55,0,0,0,13.89.59,86.37,86.37,0,0,0,13.81-1.67c1.75-.35,3.16-.67,4.13-.92a8.5,8.5,0,0,1,1.52-.31,10.44,10.44,0,0,1-1.47.51c-1,.3-2.36.68-4.1,1.08a75.67,75.67,0,0,1-13.86,1.83,76.93,76.93,0,0,1-14-.74c-1.77-.27-3.19-.54-4.17-.77A9.82,9.82,0,0,1,59.3,308.63Z" style="fill: rgb(250, 250, 250); transform-origin: 78.835px 308.848px; user-select: auto;" id="elxzb4lx616d" class="animable"></path><path d="M43.94,294.54a8.46,8.46,0,0,1,2.22.14c1.36.17,3.24.49,5.28.95s3.86,1,5.16,1.45a8.91,8.91,0,0,1,2.06.84c0,.15-3.28-.85-7.34-1.78S43.92,294.69,43.94,294.54Z" style="fill: rgb(250, 250, 250); transform-origin: 51.3px 296.228px; user-select: auto;" id="elkzwfj9xtc1j" class="animable"></path><path d="M37.56,318.73a10.54,10.54,0,0,1,2.29.55c1.39.41,3.3,1,5.37,1.8s3.93,1.54,5.25,2.14a9.28,9.28,0,0,1,2.09,1.08,11.66,11.66,0,0,1-2.23-.74l-5.29-2-5.3-1.94A11.38,11.38,0,0,1,37.56,318.73Z" style="fill: rgb(250, 250, 250); transform-origin: 45.06px 321.515px; user-select: auto;" id="el5a8uc6ptd8p" class="animable"></path><path d="M30.65,339.22a8.23,8.23,0,0,1,2.08.64c1.26.47,3,1.18,4.83,2.05s3.5,1.74,4.66,2.41a8.58,8.58,0,0,1,1.83,1.18c-.07.13-3-1.38-6.71-3.11S30.59,339.35,30.65,339.22Z" style="fill: rgb(250, 250, 250); transform-origin: 37.3496px 342.364px; user-select: auto;" id="el7sazwspw84g" class="animable"></path><path d="M67.36,244.56a11.22,11.22,0,0,1,1.53.89,36.5,36.5,0,0,0,4.29,2.15,45.26,45.26,0,0,0,15.4,3.32,99.3,99.3,0,0,0,15.84-.72l4.8-.54a11.41,11.41,0,0,1,1.76-.14,13,13,0,0,1-1.74.34c-1.12.18-2.75.44-4.77.71a88.51,88.51,0,0,1-15.92.87A43.43,43.43,0,0,1,73,247.94a28.73,28.73,0,0,1-4.24-2.32c-.49-.31-.83-.59-1.08-.77A1.82,1.82,0,0,1,67.36,244.56Z" style="fill: rgb(250, 250, 250); transform-origin: 89.17px 248.028px; user-select: auto;" id="elvwym4lc7yrf" class="animable"></path><path d="M100.41,306.84a12.29,12.29,0,0,1-1.59-2.58,37.05,37.05,0,0,1-4-14,12.9,12.9,0,0,1,0-3c.08,0,.15,1.15.39,3a47.44,47.44,0,0,0,1.44,7.08,49.08,49.08,0,0,0,2.52,6.76A28.82,28.82,0,0,1,100.41,306.84Z" style="fill: rgb(38, 50, 56); transform-origin: 97.5713px 297.05px; user-select: auto;" id="el4qfrq3b683f" class="animable"></path><path d="M117.31,293.21a15.82,15.82,0,0,1-1.69-1.64,38.94,38.94,0,0,0-4.27-3.67,14.49,14.49,0,0,0-2.59-1.63,3.34,3.34,0,0,0-2.34-.25,2.49,2.49,0,0,0-1.31.9c-.21.32-.26.55-.31.54s0-.25.14-.64a2.51,2.51,0,0,1,1.37-1.15,3.65,3.65,0,0,1,2.64.15,13.73,13.73,0,0,1,2.71,1.66,28.39,28.39,0,0,1,4.23,3.84A8.24,8.24,0,0,1,117.31,293.21Z" style="fill: rgb(38, 50, 56); transform-origin: 111.046px 289.351px; user-select: auto;" id="el47j6o9gair1" class="animable"></path><g id="elmrqoynhtxt" style="user-select: auto;"><g style="opacity: 0.3; transform-origin: 81.4001px 302.27px; user-select: auto;" class="animable"><path d="M96.1,303.62c-2.36.59-4.74-.77-7.17-.9-2.2-.11-4.3.79-6.42,1.37a22.09,22.09,0,0,1-14-.84,3.76,3.76,0,0,1-1.42-.87,1.81,1.81,0,0,1-.27-1.77c4.1,0,8.17.13,12.27.09a4.67,4.67,0,0,0,2.43-.47,1.07,1.07,0,0,0,.43-.45s2.45-.08,3.32-.09c2,0,4.25.16,6.22.15.86,0,3.62.11,3.56.11" id="elmlmyxumoq6b" class="animable" style="transform-origin: 81.4001px 302.27px; user-select: auto;"></path></g></g><g id="elcuznmx8mg9w" style="user-select: auto;"><g style="opacity: 0.3; transform-origin: 114.619px 289.456px; user-select: auto;" class="animable"><path d="M109.58,286.09a19,19,0,0,1,9.36,4.61,3.18,3.18,0,0,1,.74.9,1.14,1.14,0,0,1,0,1.12,1.19,1.19,0,0,1-1.3.37,3.58,3.58,0,0,1-1.21-.76l-7.76-6.57" id="elm4zjgizgl4" class="animable" style="transform-origin: 114.619px 289.456px; user-select: auto;"></path></g></g><path d="M111.76,263.57a19,19,0,0,1,.07,3.33c0,2.05-.18,4.89-.48,8s-.69,5.94-1,8a20.31,20.31,0,0,1-.69,3.25,21.63,21.63,0,0,1,.32-3.3c.25-2,.59-4.85.88-8s.5-5.93.63-8A25.41,25.41,0,0,1,111.76,263.57Z" style="fill: rgb(38, 50, 56); transform-origin: 110.766px 274.86px; user-select: auto;" id="elybt6npmi83o" class="animable"></path><path d="M39.09,351.14l-2.39,6.19-25.06-.18s-1.18-1.24-.19-1.65c.36-.14,16.48-5.25,16.48-5.25l.73-2.13Z" style="fill: rgb(163, 105, 87); transform-origin: 25.0722px 352.725px; user-select: auto;" id="el1j72k5qbo6aj" class="animable"></path><polygon points="76.29 286.08 71.53 275.81 55.15 274.78 54.57 275.73 66.99 299.65 81.95 299.78 76.29 286.08" style="fill: rgb(69, 90, 100); transform-origin: 68.26px 287.28px; user-select: auto;" id="elte9yjtg3z39" class="animable"></polygon><path d="M75.71,287,71,276.76l-16.38-1,11.84,24.88,13.28.1a3.2,3.2,0,0,0,2.14-.82l.12-.11Z" style="fill: rgb(69, 90, 100); transform-origin: 68.31px 288.25px; user-select: auto;" id="elt7d8tvwi8ps" class="animable"></path><path d="M63.29,245.5a.82.82,0,0,0,1.16-.05.82.82,0,1,0-1.22-1.11A.82.82,0,0,0,63.29,245.5Z" style="fill: rgb(235, 235, 235); transform-origin: 63.8416px 244.893px; user-select: auto;" id="elikgmtwqjzbo" class="animable"></path><path d="M94.9,287.55l-6.33.37a9,9,0,0,0-6.78-3.78L79.52,284l-1.65,1.65s-11.11-.22-11.6,1.12l0,.45,0,.25,9.43,1.23s-8-.53-8.54-.54-2.24-.28-2.26.67c0,.78.86,1.45,2.24,1.74.57.12,7.51,1.17,7.51,1.17l-7.68-.56c-.86-.05-.84,1.33-.34,1.54s10.06,3.65,10.06,3.65a6,6,0,0,1-3.07.83c-1.34-.19-3.55-2.07-4.08-1.28s-.47,1.28-.19,1.49a34.11,34.11,0,0,0,4.4,2.41c1,.36,11.77-.18,11.77-.18l11.21.38Z" style="fill: rgb(163, 105, 87); transform-origin: 80.815px 292.01px; user-select: auto;" id="elvu3o80d0jym" class="animable"></path><path d="M74.09,285.53a33.71,33.71,0,0,1,3.9.1,31.75,31.75,0,0,1,3.88.35,31.21,31.21,0,0,1-3.9-.1A31.48,31.48,0,0,1,74.09,285.53Z" style="fill: rgb(124, 59, 41); transform-origin: 77.98px 285.757px; user-select: auto;" id="elu8r6swu4lpo" class="animable"></path><path d="M74.8,285.08s-.11-.21-.3-.61l-.78-1.71c-.69-1.55-1.61-3.59-2.67-5.93l.06,0-3.75-.24-9-.6-2.74-.2-.75-.06-.25,0h.26l.74,0,2.75.15,9.05.56,3.75.24h0l0,0,2.61,6,.75,1.73C74.72,284.85,74.8,285.08,74.8,285.08Z" style="fill: rgb(38, 50, 56); transform-origin: 64.71px 280.405px; user-select: auto;" id="el25qg2lrb6kth" class="animable"></path><path d="M138.07,339.93l-10.9,13.72s11,14.66,9.25,17.39l-28.1-19.16,16.12-22.07Z" style="fill: rgb(255, 114, 94); transform-origin: 123.195px 350.425px; user-select: auto;" id="el4kkjjvbtoq" class="animable"></path><g id="els7jq1afa2hr" style="user-select: auto;"><g style="opacity: 0.6; transform-origin: 119.094px 347.429px; user-select: auto;" class="animable"><path d="M119.58,346.22a1.39,1.39,0,0,0-1.71.71,1.33,1.33,0,0,0,.68,1.7,1.46,1.46,0,0,0,1.81-.75,1.39,1.39,0,0,0-.91-1.7" style="fill: rgb(255, 255, 255); transform-origin: 119.094px 347.429px; user-select: auto;" id="elqfu46x65np" class="animable"></path></g></g><g id="eloekolum1mu" style="user-select: auto;"><g style="opacity: 0.6; transform-origin: 122.517px 360.5px; user-select: auto;" class="animable"><path d="M108.32,351.88l1.62-2.22,26.49,19.44a2.35,2.35,0,0,1,0,2.24Z" style="fill: rgb(255, 255, 255); transform-origin: 122.517px 360.5px; user-select: auto;" id="eljuzhfqqaqu8" class="animable"></path></g></g><path d="M127.71,353.84c-.1.13-.81-.3-1.79-.36s-1.74.25-1.82.11.68-.77,1.86-.68S127.83,353.74,127.71,353.84Z" style="fill: rgb(38, 50, 56); transform-origin: 125.909px 353.383px; user-select: auto;" id="elcm5gqoikq3a" class="animable"></path><path d="M129.71,357.15c-.07.15-.82,0-1.69.18s-1.44.73-1.57.62.35-.92,1.43-1.18S129.8,357,129.71,357.15Z" style="fill: rgb(38, 50, 56); transform-origin: 128.073px 357.33px; user-select: auto;" id="el85u7we425fe" class="animable"></path><path d="M128.8,361.78c-.14-.06.16-.86,1-1.34s1.72-.31,1.7-.16-.71.26-1.42.67S128.94,361.87,128.8,361.78Z" style="fill: rgb(38, 50, 56); transform-origin: 130.134px 360.957px; user-select: auto;" id="elisdfnj6zotc" class="animable"></path><path d="M129.85,350.44c-.14.08-.62-.56-1.41-1.06s-1.56-.71-1.55-.87.94-.23,1.86.38S130,350.38,129.85,350.44Z" style="fill: rgb(38, 50, 56); transform-origin: 128.387px 349.423px; user-select: auto;" id="elnb35je2lm8" class="animable"></path><path d="M132,347.63c0,.06-.63-.25-1.36-1a7.3,7.3,0,0,1-1.11-1.5,6.62,6.62,0,0,1-.48-1,1.9,1.9,0,0,1-.18-.62.73.73,0,0,1,.47-.76.91.91,0,0,1,.81.13,2.19,2.19,0,0,1,.46.45,5.79,5.79,0,0,1,.63.92,6.22,6.22,0,0,1,.66,1.76,2.78,2.78,0,0,1,0,1.71c-.09,0-.09-.65-.38-1.61a6.74,6.74,0,0,0-.71-1.59,7.66,7.66,0,0,0-.61-.83c-.24-.29-.48-.47-.65-.4s-.08.05-.08.18a1.35,1.35,0,0,0,.13.46,6.83,6.83,0,0,0,.42.95,8.83,8.83,0,0,0,.95,1.48C131.57,347.14,132.06,347.56,132,347.63Z" style="fill: rgb(38, 50, 56); transform-origin: 130.45px 345.214px; user-select: auto;" id="elp03d7fby7ll" class="animable"></path><path d="M131.69,347.69c-.07,0,0-.69.61-1.59a5.46,5.46,0,0,1,1.3-1.36,5,5,0,0,1,1-.57,1.39,1.39,0,0,1,1.38-.05.78.78,0,0,1,.29.8,1.89,1.89,0,0,1-.23.61,3.39,3.39,0,0,1-.68.92,3.91,3.91,0,0,1-1.63,1,2.24,2.24,0,0,1-1.71,0,14.44,14.44,0,0,0,1.57-.4,4,4,0,0,0,1.39-1,3.42,3.42,0,0,0,.56-.81c.17-.32.23-.63.1-.68s-.52-.06-.81.09a5.83,5.83,0,0,0-.89.49,6.36,6.36,0,0,0-1.27,1.17C132,347.12,131.77,347.73,131.69,347.69Z" style="fill: rgb(38, 50, 56); transform-origin: 133.979px 345.826px; user-select: auto;" id="eld3u4r67k75q" class="animable"></path><polygon points="148.92 325.34 137.57 339.56 124.75 330.04 135.64 313.38 148.92 325.34" style="fill: rgb(163, 105, 87); transform-origin: 136.835px 326.47px; user-select: auto;" id="el2urf7cfps1e" class="animable"></polygon></g><g id="freepik--Plant--inject-71" class="animable" style="transform-origin: 112.009px 88.1654px; user-select: auto;"><path d="M94.65,132l.06-.34.21-1c.19-.88.48-2.15.84-3.78.74-3.3,1.82-8,3.14-13.91l10.56-46,.18-.81.19.81c.07.33.15.68.23,1,4.1,18.23,7.82,34.74,10.51,46.71,1.33,6,2.4,10.8,3.15,14.16.36,1.66.64,3,.83,3.86l.21,1a3,3,0,0,1,.06.35s0-.12-.1-.34-.14-.57-.24-1c-.21-.89-.52-2.18-.91-3.84-.77-3.35-1.88-8.18-3.26-14.14-2.72-12-6.47-28.45-10.62-46.68l-.23-1h.37c-4.17,18-7.94,34.2-10.67,46-1.37,5.85-2.49,10.59-3.26,13.88L95,130.69l-.24,1C94.69,131.88,94.65,132,94.65,132Z" style="fill: rgb(38, 50, 56); transform-origin: 109.735px 100.105px; user-select: auto;" id="el98vhs24u1kk" class="animable"></path><path d="M94.64,145.65V134.11h30.8v11.54A13.43,13.43,0,0,1,112,159.08h-3.92A13.43,13.43,0,0,1,94.64,145.65Z" style="fill: rgb(69, 90, 100); transform-origin: 110.04px 146.595px; user-select: auto;" id="elhfah5ya9lf" class="animable"></path><path d="M94.64,134.11a2.23,2.23,0,0,1,.35.48l.94,1.43c.83,1.28,2,3.08,3.4,5.29l11.07,17.55.08.12h-.32l10.74-17.64c1.37-2.23,2.49-4,3.29-5.32l.91-1.44a3.19,3.19,0,0,1,.34-.48,3.65,3.65,0,0,1-.28.52l-.84,1.47-3.19,5.38c-2.74,4.56-6.49,10.8-10.65,17.7l-.16.27-.16-.27-.08-.12-11-17.6-3.29-5.36-.88-1.47A5,5,0,0,1,94.64,134.11Z" style="fill: rgb(38, 50, 56); transform-origin: 110.04px 146.77px; user-select: auto;" id="elirb22ccqy8j" class="animable"></path><path d="M113.1,66.9a3.37,3.37,0,1,1-3.36-3.36A3.36,3.36,0,0,1,113.1,66.9Z" style="fill: rgb(38, 50, 56); transform-origin: 109.73px 66.91px; user-select: auto;" id="el0trrpph99hv" class="animable"></path><path d="M109.74,9.67c.1,0,.19,13,.19,28.93s-.09,28.93-.19,28.93-.19-13-.19-28.93S109.63,9.67,109.74,9.67Z" style="fill: rgb(38, 50, 56); transform-origin: 109.74px 38.6px; user-select: auto;" id="elrv140i0l3c" class="animable"></path><path d="M111.48,160.34A1.44,1.44,0,1,1,110,158.9,1.44,1.44,0,0,1,111.48,160.34Z" style="fill: rgb(38, 50, 56); transform-origin: 110.04px 160.339px; user-select: auto;" id="elip1wvjytj59" class="animable"></path><path d="M109.4,160.88l.24-.12a3.2,3.2,0,0,0-1.46,2.38,8.43,8.43,0,0,0,.25,2.87c.06.3.22.67.53.65s.4-.34.45-.61a5.9,5.9,0,0,0,0-1.73,3.08,3.08,0,0,0,.67,2,.4.4,0,0,0,.36.19c.13,0,.19-.19.22-.32a6.7,6.7,0,0,0,.22-1.48,2.21,2.21,0,0,0,.46,1.2.78.78,0,0,0,1.14.08,1.11,1.11,0,0,0,.13-.84,9.92,9.92,0,0,0-2-4.73" style="fill: rgb(38, 50, 56); transform-origin: 110.396px 163.54px; user-select: auto;" id="elib2ty0be5fe" class="animable"></path><path d="M96.58,134.11s-13.83-16-12.29-16.53,13.83,8.26,13.83,8.26-10.57-23.63-8.45-25.36,13.25,20.94,13.25,20.94-1.73-33,0-33.43S111,121,111,121s9.42-30.55,12.11-30.55-2.88,29.4-2.88,29.4,11.14-18.83,12.87-16.34-7.88,22.87-7.88,22.87,14-11.72,14.61-10.18-15.18,17.87-15.18,17.87Z" style="fill: rgb(255, 114, 94); transform-origin: 112.009px 111.048px; user-select: auto;" id="el0xea0m3y1lu" class="animable"></path><path d="M94.65,110.09c.1,0,2.55,5.21,5.48,11.75s5.23,11.86,5.14,11.9-2.55-5.22-5.48-11.75S94.56,110.13,94.65,110.09Z" style="fill: rgb(38, 50, 56); transform-origin: 99.96px 121.915px; user-select: auto;" id="elhm5qypz2rup" class="animable"></path><path d="M105.83,113c.1,0,.51,4.63.91,10.35s.64,10.38.53,10.38-.51-4.62-.91-10.35S105.72,113,105.83,113Z" style="fill: rgb(38, 50, 56); transform-origin: 106.55px 123.365px; user-select: auto;" id="elyxxyvhlzdnf" class="animable"></path><path d="M121.25,98.23a1.74,1.74,0,0,1-.09.37l-.3,1.05c-.29,1-.68,2.27-1.16,3.85-1,3.25-2.28,7.75-3.62,12.75s-2.44,9.57-3.21,12.87L112,133c-.1.43-.19.78-.26,1.07a1.4,1.4,0,0,1-.11.36s0-.13,0-.38.11-.64.19-1.08c.17-.93.44-2.28.79-3.94.71-3.32,1.78-7.89,3.11-12.9s2.69-9.51,3.74-12.74c.52-1.62,1-2.92,1.27-3.82l.37-1C121.18,98.34,121.23,98.22,121.25,98.23Z" style="fill: rgb(38, 50, 56); transform-origin: 116.44px 116.33px; user-select: auto;" id="eligc12wqutzi" class="animable"></path><path d="M127.91,115.26c.09.06-2.61,4.09-6,9s-6.26,8.84-6.34,8.78,2.61-4.09,6-9S127.83,115.2,127.91,115.26Z" style="fill: rgb(38, 50, 56); transform-origin: 121.74px 124.15px; user-select: auto;" id="el0mlq50vgpeka" class="animable"></path><path d="M101.25,133.77a5.52,5.52,0,0,1-1.21-.87,33.8,33.8,0,0,1-2.63-2.43,32.25,32.25,0,0,1-2.36-2.69,5.36,5.36,0,0,1-.84-1.23c.09-.07,1.53,1.67,3.47,3.66S101.32,133.68,101.25,133.77Z" style="fill: rgb(38, 50, 56); transform-origin: 97.731px 130.159px; user-select: auto;" id="elkdayidco6h" class="animable"></path><path d="M109.65,127.43a14.17,14.17,0,0,1,.5,3.29,15.34,15.34,0,0,1,.11,3.32,13.88,13.88,0,0,1-.49-3.29A15,15,0,0,1,109.65,127.43Z" style="fill: rgb(38, 50, 56); transform-origin: 109.956px 130.735px; user-select: auto;" id="elmlz999yy2ja" class="animable"></path><path d="M125.44,141.3a8.53,8.53,0,0,1-1.19.24c-.77.14-1.89.31-3.27.51a106.41,106.41,0,0,1-10.89,1,69,69,0,0,1-10.91-.45c-1.39-.18-2.51-.36-3.28-.53a7.76,7.76,0,0,1-1.18-.28,6.23,6.23,0,0,1,1.21.14c.77.11,1.89.26,3.28.4a78.76,78.76,0,0,0,10.87.34c4.25-.14,8.09-.54,10.86-.85l3.29-.38A6.75,6.75,0,0,1,125.44,141.3Z" style="fill: rgb(255, 255, 255); transform-origin: 110.08px 142.2px; user-select: auto;" id="elk5d61c92jnk" class="animable"></path><path d="M125.44,144.73a6.31,6.31,0,0,1-1.19.25c-.77.14-1.89.31-3.27.5a109,109,0,0,1-10.89,1A68.79,68.79,0,0,1,99.18,146c-1.39-.18-2.51-.36-3.28-.52a9.66,9.66,0,0,1-1.18-.28,6.61,6.61,0,0,1,1.21.13c.77.12,1.89.26,3.28.41a82.06,82.06,0,0,0,10.87.34c4.25-.15,8.09-.54,10.86-.85l3.29-.39A8.2,8.2,0,0,1,125.44,144.73Z" style="fill: rgb(255, 255, 255); transform-origin: 110.08px 145.627px; user-select: auto;" id="elk882shtaal" class="animable"></path></g><g id="freepik--Device--inject-71" class="animable animator-active" style="transform-origin: 263.845px 264.93px; user-select: auto;"><path d="M326.6,452.13l-127-.59A27.67,27.67,0,0,1,172,423.76l1.35-318.47a27.67,27.67,0,0,1,27.8-27.56l127,.59a27.66,27.66,0,0,1,27.54,27.79L354.4,424.58A27.68,27.68,0,0,1,326.6,452.13Z" style="fill: rgb(38, 50, 56); transform-origin: 263.845px 264.93px; user-select: auto;" id="elq30kqc5j0js" class="animable"></path><path d="M328,89.31l-24.63-.11a6.11,6.11,0,0,0-6,6.22l0,4.47a6.11,6.11,0,0,1-6,6.22l-48-.22a6.13,6.13,0,0,1-6-6.28l0-4.47a6.12,6.12,0,0,0-5.95-6.28l-8.66,0-21.56-.1A19.38,19.38,0,0,0,181.77,108l-1.31,310.85a19.38,19.38,0,0,0,19.29,19.46l126.77.59A19.37,19.37,0,0,0,346,419.62l1.32-310.85A19.38,19.38,0,0,0,328,89.31Z" style="fill: rgb(250, 250, 250); transform-origin: 263.89px 263.83px; user-select: auto;" id="el5an4a5ghdqh" class="animable"></path><rect x="257.1" y="156.72" width="16.83" height="26.71" rx="8.41" style="fill: rgb(255, 114, 94); transform-origin: 265.515px 170.075px; user-select: auto;" id="elyf4cjf0eaq7" class="animable"></rect><path d="M265.52,188.54a12.42,12.42,0,0,1-12.41-12.41.59.59,0,1,1,1.17,0,11.25,11.25,0,0,0,11.23,11.23c6.62,0,11.24-4.62,11.24-11.23a.59.59,0,1,1,1.17,0C277.92,183.43,272.82,188.53,265.52,188.54Z" style="fill: rgb(255, 114, 94); transform-origin: 265.515px 182.002px; user-select: auto;" id="elqxg4k02nlvp" class="animable"></path><rect x="264.93" y="187.94" width="1.17" height="6.08" style="fill: rgb(255, 114, 94); transform-origin: 265.515px 190.98px; user-select: auto;" id="ell8krz5mj05" class="animable"></rect><path d="M272.86,194.35H258.17a.6.6,0,0,1-.59-.59.59.59,0,0,1,.59-.59h14.69a.59.59,0,0,1,.59.59A.6.6,0,0,1,272.86,194.35Z" style="fill: rgb(255, 114, 94); transform-origin: 265.515px 193.76px; user-select: auto;" id="elks727f86kka" class="animable"></path><path d="M333.17,124.77a49.6,49.6,0,0,1-6.85.24,49.48,49.48,0,0,1-6.85-.24,46.74,46.74,0,0,1,6.85-.25A46.85,46.85,0,0,1,333.17,124.77Z" style="fill: rgb(38, 50, 56); transform-origin: 326.32px 124.764px; user-select: auto;" id="elpk2b0t0fdg" class="animable"></path><path d="M333.17,121.19a48.59,48.59,0,0,1-6.85.25,48.47,48.47,0,0,1-6.85-.25,46.74,46.74,0,0,1,6.85-.25A46.85,46.85,0,0,1,333.17,121.19Z" style="fill: rgb(38, 50, 56); transform-origin: 326.32px 121.188px; user-select: auto;" id="elfm3rp9kq00f" class="animable"></path><path d="M333.17,117.61a46.85,46.85,0,0,1-6.85.25,46.74,46.74,0,0,1-6.85-.25,46.74,46.74,0,0,1,6.85-.25A46.85,46.85,0,0,1,333.17,117.61Z" style="fill: rgb(38, 50, 56); transform-origin: 326.32px 117.61px; user-select: auto;" id="elu2zd1d6dtbo" class="animable"></path><path d="M200.84,125.21c-.11.13-2.9-1.95-6.25-4.66v-.46h0l0,0,.08-.07.15-.12.31-.25.61-.48,1.14-.91,2-1.5a8.27,8.27,0,0,1,1.91-1.27,9.11,9.11,0,0,1-1.64,1.6l-1.89,1.6-1.13.93-.59.49-.31.25-.16.13-.08.06,0,0,0,0h0v-.46A53,53,0,0,1,200.84,125.21Z" style="fill: rgb(38, 50, 56); transform-origin: 197.715px 120.353px; user-select: auto;" id="elwk0w1z0w03" class="animable"></path><path d="M318.32,253.05s.21,0,.61-.09a3.31,3.31,0,0,0,1.55-.8,3.27,3.27,0,0,0,1-2.58,3.24,3.24,0,0,0-1.82-3.17,3.2,3.2,0,0,0-1.08-.3c-.37,0-.79,0-1.2,0l-2.63,0-5.94,0-14.5,0-84,.08a3,3,0,0,0-2.42,1.22,3.66,3.66,0,0,0-.56,2.7,3,3,0,0,0,1.51,2.21,2.92,2.92,0,0,0,1.32.38c.47,0,1,0,1.48,0h11.79l22.29,0,37.74.06,25.44.08,6.92.05,1.8,0c.41,0,.61,0,.61,0l-.61,0-1.8,0-6.92.05-25.44.09-37.74,0-22.29,0h-13.3a3.56,3.56,0,0,1-3.33-3.05,6.12,6.12,0,0,1,0-1.6,3.34,3.34,0,0,1,.64-1.5,3.57,3.57,0,0,1,2.85-1.44l84,.08,14.5,0,5.94,0h2.63c.42,0,.81,0,1.23,0a3.75,3.75,0,0,1,1.91,6.35,3.22,3.22,0,0,1-1.62.77A2.24,2.24,0,0,1,318.32,253.05Z" style="fill: rgb(38, 50, 56); transform-origin: 264.182px 249.245px; user-select: auto;" id="el4bxgrf15zzc" class="animable"></path><rect x="208.44" y="246.94" width="55.17" height="5.15" rx="2.32" style="fill: rgb(255, 114, 94); transform-origin: 236.025px 249.515px; user-select: auto;" id="eldnsvstff05r" class="animable"></rect><path d="M279.17,284.44a13.69,13.69,0,1,1-14.58-12.73A13.68,13.68,0,0,1,279.17,284.44Z" style="fill: rgb(255, 114, 94); transform-origin: 265.512px 285.369px; user-select: auto;" id="elbdeqokbex9t" class="animable"></path><path d="M264.21,289.07l5.23-2.92a.71.71,0,0,0,0-1.22l-5.23-3.41a.73.73,0,0,0-1.13.62v6.28A.73.73,0,0,0,264.21,289.07Z" style="fill: rgb(250, 250, 250); transform-origin: 266.433px 285.295px; user-select: auto;" id="elf0dtysay5k8" class="animable"></path><path d="M220.75,289.21c-.29,0-.53-1.82-.53-4.07s.24-4.08.53-4.08.54,1.83.54,4.08S221.05,289.21,220.75,289.21Z" style="fill: rgb(255, 114, 94); transform-origin: 220.755px 285.135px; user-select: auto;" id="elw27qpvr2di" class="animable"></path><path d="M229.87,281.54l-5.28,2.82a.71.71,0,0,0-.07,1.22l5.16,3.5a.73.73,0,0,0,1.15-.59l.12-6.29A.73.73,0,0,0,229.87,281.54Z" style="fill: rgb(255, 114, 94); transform-origin: 227.578px 285.332px; user-select: auto;" id="elyb1xeppbkd" class="animable"></path><path d="M306.79,281.06c.3,0,.54,1.83.54,4.08s-.24,4.07-.54,4.07-.54-1.82-.54-4.07S306.49,281.06,306.79,281.06Z" style="fill: rgb(255, 114, 94); transform-origin: 306.79px 285.135px; user-select: auto;" id="elzbf4nknj3g" class="animable"></path><path d="M297.68,288.73l5.28-2.82a.71.71,0,0,0,.06-1.22l-5.16-3.5a.74.74,0,0,0-1.15.6l-.12,6.28A.74.74,0,0,0,297.68,288.73Z" style="fill: rgb(255, 114, 94); transform-origin: 299.964px 284.942px; user-select: auto;" id="el087flpdsuj4s" class="animable"></path><path d="M311.77,220.16c0,.14-21.44.26-47.89.26S216,220.3,216,220.16s21.44-.26,47.89-.26S311.77,220,311.77,220.16Z" style="fill: rgb(38, 50, 56); transform-origin: 263.885px 220.16px; user-select: auto;" id="elqgkjgd4yrqb" class="animable"></path><path d="M290.27,227.29c0,.14-13.19.26-29.46.26s-29.46-.12-29.46-.26,13.19-.26,29.46-.26S290.27,227.14,290.27,227.29Z" style="fill: rgb(38, 50, 56); transform-origin: 260.81px 227.29px; user-select: auto;" id="elp5ddmarp7b" class="animable"></path><rect x="322.15" y="400.82" width="14.79" height="13.46" rx="4.56" style="fill: rgb(255, 114, 94); transform-origin: 329.545px 407.55px; user-select: auto;" id="el13t9v0x6zwzd" class="animable"></rect><path d="M300.92,404.08a1.69,1.69,0,0,0-1.77,1.56,1.68,1.68,0,0,0-1.77-1.56,1.79,1.79,0,0,0-1.35,2,3,3,0,0,0,1.35,1.91,6.33,6.33,0,0,1,1.77,1.53,6.33,6.33,0,0,1,1.77-1.53,3,3,0,0,0,1.35-1.91A1.79,1.79,0,0,0,300.92,404.08Z" style="fill: rgb(255, 114, 94); transform-origin: 299.15px 406.799px; user-select: auto;" id="el1vkg4g5pa2o" class="animable"></path><path d="M310.59,406.79a.81.81,0,1,1-.81-.81A.81.81,0,0,1,310.59,406.79Z" style="fill: rgb(38, 50, 56); transform-origin: 309.78px 406.79px; user-select: auto;" id="elc9icu9n5hvf" class="animable"></path><path d="M313.22,406.79a.82.82,0,1,1-.81-.81A.81.81,0,0,1,313.22,406.79Z" style="fill: rgb(38, 50, 56); transform-origin: 312.4px 406.8px; user-select: auto;" id="elx7tspu8x3yl" class="animable"></path><path d="M315.85,406.79a.82.82,0,0,1-.82.81.81.81,0,0,1,0-1.62A.82.82,0,0,1,315.85,406.79Z" style="fill: rgb(38, 50, 56); transform-origin: 315.035px 406.79px; user-select: auto;" id="el74dinpxb9kt" class="animable"></path><path d="M273.2,412.36c0,.19-11.67.34-26.06.34s-26.06-.15-26.06-.34,11.67-.33,26.06-.33S273.2,412.18,273.2,412.36Z" style="fill: rgb(38, 50, 56); transform-origin: 247.14px 412.365px; user-select: auto;" id="elxu669sh39da" class="animable"></path><path d="M243.88,416.64c0,.18-5,.33-11.23.33s-11.23-.15-11.23-.33,5-.34,11.23-.34S243.88,416.45,243.88,416.64Z" style="fill: rgb(38, 50, 56); transform-origin: 232.65px 416.635px; user-select: auto;" id="elu84acmsun9" class="animable"></path><path d="M201.69,397.15A10.87,10.87,0,1,0,212.56,408,10.87,10.87,0,0,0,201.69,397.15Z" style="fill: rgb(255, 114, 94); transform-origin: 201.69px 408.02px; user-select: auto;" id="elk965sj5nk1m" class="animable"></path><path d="M335.23,314.25c0,.18-32.33.33-72.2.33s-72.21-.15-72.21-.33,32.33-.34,72.21-.34S335.23,314.06,335.23,314.25Z" style="fill: rgb(38, 50, 56); transform-origin: 263.025px 314.245px; user-select: auto;" id="elaxp4ad3l3ct" class="animable"></path><path d="M335.23,352.63c0,.19-32.33.34-72.2.34s-72.21-.15-72.21-.34,32.33-.33,72.21-.33S335.23,352.45,335.23,352.63Z" style="fill: rgb(38, 50, 56); transform-origin: 263.025px 352.635px; user-select: auto;" id="eldl12kraevxo" class="animable"></path><path d="M335.23,391c0,.19-32.33.34-72.2.34s-72.21-.15-72.21-.34,32.33-.33,72.21-.33S335.23,390.84,335.23,391Z" style="fill: rgb(38, 50, 56); transform-origin: 263.025px 391.005px; user-select: auto;" id="eln1pawtm1req" class="animable"></path><rect x="220.89" y="405.36" width="40.88" height="2" style="fill: rgb(255, 114, 94); transform-origin: 241.33px 406.36px; user-select: auto;" id="ela0ws216w7fg" class="animable"></rect><rect x="322.15" y="364.04" width="14.79" height="13.46" rx="4.56" style="fill: rgb(69, 90, 100); transform-origin: 329.545px 370.77px; user-select: auto;" id="elhu9oqrqkiqs" class="animable"></rect><path d="M201.69,360a10.87,10.87,0,1,0,10.87,10.87A10.87,10.87,0,0,0,201.69,360Z" style="fill: rgb(69, 90, 100); transform-origin: 201.69px 370.87px; user-select: auto;" id="elkp40omr49mp" class="animable"></path><path d="M300.92,367.3a1,1,0,0,1,.54.15,1.91,1.91,0,0,1,.88,1.28,2.39,2.39,0,0,1-.87,2.17c-.67.64-1.64,1.05-2.21,1.91l-.11.17-.11-.17a7.92,7.92,0,0,0-2-1.66,2.92,2.92,0,0,1-1.19-1.84,2,2,0,0,1,.8-1.86,1.48,1.48,0,0,1,1.79.05,1.89,1.89,0,0,1,.75,1.35h-.18a1.83,1.83,0,0,1,1.16-1.51,1,1,0,0,1,.7,0,1.7,1.7,0,0,0-.66.13,1.75,1.75,0,0,0-1,1.43h-.18a1.73,1.73,0,0,0-.7-1.19,1.24,1.24,0,0,0-1.51,0,1.76,1.76,0,0,0-.69,1.62,2.68,2.68,0,0,0,1.1,1.67,8,8,0,0,1,2,1.73H299a12,12,0,0,1,2.27-1.93,2.25,2.25,0,0,0,.87-2,1.82,1.82,0,0,0-.77-1.23A2.12,2.12,0,0,0,300.92,367.3Z" style="fill: rgb(38, 50, 56); transform-origin: 299.097px 370.077px; user-select: auto;" id="elt7m6lqv3fdh" class="animable"></path><path d="M310.59,370a.81.81,0,1,1-.81-.81A.81.81,0,0,1,310.59,370Z" style="fill: rgb(38, 50, 56); transform-origin: 309.78px 370px; user-select: auto;" id="el5h79y97iopn" class="animable"></path><path d="M313.22,370a.82.82,0,1,1-.81-.81A.81.81,0,0,1,313.22,370Z" style="fill: rgb(38, 50, 56); transform-origin: 312.4px 370.01px; user-select: auto;" id="el022nm30ydei9" class="animable"></path><path d="M315.85,370a.82.82,0,0,1-.82.81.81.81,0,0,1,0-1.62A.82.82,0,0,1,315.85,370Z" style="fill: rgb(38, 50, 56); transform-origin: 315.037px 370px; user-select: auto;" id="elyxfw0fici1j" class="animable"></path><path d="M328.3,368.55c0,1.08,0,2.68,0,3.77a.59.59,0,0,0,.95.46l2.51-1.87a.59.59,0,0,0,0-1l-2.53-1.88A.59.59,0,0,0,328.3,368.55Z" style="fill: rgb(255, 255, 255); transform-origin: 330.168px 370.412px; user-select: auto;" id="elyzkiqzu8sz" class="animable"></path><path d="M328.3,405.62c0,1.08,0,2.68,0,3.76a.59.59,0,0,0,.95.47l2.51-1.87a.59.59,0,0,0,0-1l-2.53-1.88A.59.59,0,0,0,328.3,405.62Z" style="fill: rgb(255, 255, 255); transform-origin: 330.168px 407.482px; user-select: auto;" id="elm7adgqrvcxi" class="animable"></path><rect x="220.89" y="366.57" width="40.88" height="2" style="fill: rgb(69, 90, 100); transform-origin: 241.33px 367.57px; user-select: auto;" id="elpzh1dq2o9i" class="animable"></rect><path d="M273.2,375.59c0,.18-11.67.33-26.06.33s-26.06-.15-26.06-.33,11.67-.34,26.06-.34S273.2,375.4,273.2,375.59Z" style="fill: rgb(38, 50, 56); transform-origin: 247.14px 375.585px; user-select: auto;" id="elnz110wu53oj" class="animable"></path><path d="M243.88,379.86c0,.18-5,.33-11.23.33s-11.23-.15-11.23-.33,5-.34,11.23-.34S243.88,379.67,243.88,379.86Z" style="fill: rgb(38, 50, 56); transform-origin: 232.65px 379.855px; user-select: auto;" id="el60go95rkg4w" class="animable"></path><rect x="322.15" y="326.82" width="14.79" height="13.46" rx="4.56" style="fill: rgb(255, 114, 94); transform-origin: 329.545px 333.55px; user-select: auto;" id="el3kwh51hnzz" class="animable"></rect><path d="M201.69,322.73a10.87,10.87,0,1,0,10.87,10.87A10.87,10.87,0,0,0,201.69,322.73Z" style="fill: rgb(255, 114, 94); transform-origin: 201.69px 333.6px; user-select: auto;" id="elq3oduzvue48" class="animable"></path><path d="M300.92,330.07a1.7,1.7,0,0,0-1.77,1.56,1.69,1.69,0,0,0-1.77-1.56,1.8,1.8,0,0,0-1.35,2,3,3,0,0,0,1.35,1.9,6.37,6.37,0,0,1,1.77,1.54,6.37,6.37,0,0,1,1.77-1.54,3,3,0,0,0,1.35-1.9A1.8,1.8,0,0,0,300.92,330.07Z" style="fill: rgb(255, 114, 94); transform-origin: 299.15px 332.789px; user-select: auto;" id="elvyo27tums68" class="animable"></path><path d="M310.59,332.79a.81.81,0,1,1-.81-.81A.81.81,0,0,1,310.59,332.79Z" style="fill: rgb(38, 50, 56); transform-origin: 309.78px 332.79px; user-select: auto;" id="elncyl1xhd5t" class="animable"></path><path d="M313.22,332.79a.82.82,0,1,1-.81-.81A.81.81,0,0,1,313.22,332.79Z" style="fill: rgb(38, 50, 56); transform-origin: 312.4px 332.8px; user-select: auto;" id="el3nmoa4wxxqa" class="animable"></path><path d="M315.85,332.79a.82.82,0,0,1-.82.81.81.81,0,0,1,0-1.62A.82.82,0,0,1,315.85,332.79Z" style="fill: rgb(38, 50, 56); transform-origin: 315.035px 332.79px; user-select: auto;" id="el58i7v452tqe" class="animable"></path><path d="M328.3,331.33c0,1.08,0,2.68,0,3.76a.59.59,0,0,0,.95.47l2.51-1.87a.59.59,0,0,0,0-.95l-2.53-1.88A.59.59,0,0,0,328.3,331.33Z" style="fill: rgb(255, 255, 255); transform-origin: 330.15px 333.217px; user-select: auto;" id="elfen0lhbbi3" class="animable"></path><rect x="220.89" y="329.34" width="40.88" height="2" style="fill: rgb(255, 114, 94); transform-origin: 241.33px 330.34px; user-select: auto;" id="elaei910w9v96" class="animable"></rect><path d="M273.2,338.36c0,.19-11.67.34-26.06.34s-26.06-.15-26.06-.34,11.67-.33,26.06-.33S273.2,338.18,273.2,338.36Z" style="fill: rgb(38, 50, 56); transform-origin: 247.14px 338.365px; user-select: auto;" id="elnqjymwxq3l" class="animable"></path><path d="M243.88,342.63c0,.19-5,.34-11.23.34s-11.23-.15-11.23-.34,5-.33,11.23-.33S243.88,342.45,243.88,342.63Z" style="fill: rgb(38, 50, 56); transform-origin: 232.65px 342.635px; user-select: auto;" id="el5qmp71cgzjc" class="animable"></path><path d="M201.51,338c-.19,0-.34-1.95-.34-4.36s.15-4.35.34-4.35.34,1.95.34,4.35S201.7,338,201.51,338Z" style="fill: rgb(224, 224, 224); transform-origin: 201.51px 333.645px; user-select: auto;" id="el4n8lzfercc6" class="animable"></path><path d="M199.11,335.55c-.19,0-.34-.92-.34-2.07s.15-2.07.34-2.07.33.93.33,2.07S199.29,335.55,199.11,335.55Z" style="fill: rgb(224, 224, 224); transform-origin: 199.105px 333.48px; user-select: auto;" id="elnyvstuc7bnh" class="animable"></path><path d="M196.7,334.88c-.19,0-.36-.47-.39-1.07s.09-1.09.28-1.1.36.47.39,1.07S196.88,334.87,196.7,334.88Z" style="fill: rgb(224, 224, 224); transform-origin: 196.645px 333.795px; user-select: auto;" id="elhjuxllsa4n7" class="animable"></path><path d="M204,335.85c-.19,0-.31-1.12-.29-2.49s.2-2.47.39-2.47.31,1.12.28,2.49S204.21,335.85,204,335.85Z" style="fill: rgb(224, 224, 224); transform-origin: 204.046px 333.37px; user-select: auto;" id="el50jsi81o232" class="animable"></path><path d="M206.75,334.94c-.19,0-.34-.49-.34-1.09s.15-1.08.34-1.08.33.48.33,1.08S206.93,334.94,206.75,334.94Z" style="fill: rgb(224, 224, 224); transform-origin: 206.745px 333.855px; user-select: auto;" id="el1h9qxn4bkd8h" class="animable"></path><path d="M201.82,374.59c-.18,0-.33-1.95-.33-4.35s.15-4.36.33-4.36.34,1.95.34,4.36S202,374.59,201.82,374.59Z" style="fill: rgb(224, 224, 224); transform-origin: 201.825px 370.235px; user-select: auto;" id="elglgn79twvwq" class="animable"></path><path d="M199.42,372.19c-.19,0-.34-.93-.34-2.07s.15-2.07.34-2.07.33.92.33,2.07S199.6,372.19,199.42,372.19Z" style="fill: rgb(224, 224, 224); transform-origin: 199.415px 370.12px; user-select: auto;" id="elu9045sn2fc" class="animable"></path><path d="M197,371.52c-.19,0-.36-.47-.39-1.07s.1-1.09.28-1.1.36.47.39,1.07S197.19,371.51,197,371.52Z" style="fill: rgb(224, 224, 224); transform-origin: 196.945px 370.435px; user-select: auto;" id="ellmdvmrw0f1k" class="animable"></path><path d="M204.33,372.48c-.18,0-.31-1.11-.28-2.48s.19-2.48.38-2.47.31,1.11.29,2.48S204.52,372.49,204.33,372.48Z" style="fill: rgb(224, 224, 224); transform-origin: 204.384px 370.005px; user-select: auto;" id="eli1deyucgjy" class="animable"></path><path d="M207.06,371.57c-.19,0-.34-.48-.34-1.08s.15-1.09.34-1.09.34.49.34,1.09S207.25,371.57,207.06,371.57Z" style="fill: rgb(224, 224, 224); transform-origin: 207.06px 370.485px; user-select: auto;" id="elqvv5opy9tk" class="animable"></path><path d="M201.82,411.87c-.18,0-.33-1.95-.33-4.36s.15-4.36.33-4.36.34,2,.34,4.36S202,411.87,201.82,411.87Z" style="fill: rgb(224, 224, 224); transform-origin: 201.825px 407.51px; user-select: auto;" id="eluqzjw7higok" class="animable"></path><path d="M199.42,409.46c-.19,0-.34-.93-.34-2.07s.15-2.07.34-2.07.33.92.33,2.07S199.6,409.46,199.42,409.46Z" style="fill: rgb(224, 224, 224); transform-origin: 199.415px 407.39px; user-select: auto;" id="elw17zlocxlqj" class="animable"></path><path d="M197,408.79c-.19,0-.36-.47-.39-1.07s.1-1.09.28-1.1.36.47.39,1.07S197.19,408.78,197,408.79Z" style="fill: rgb(224, 224, 224); transform-origin: 196.945px 407.705px; user-select: auto;" id="elav0i8whcfnr" class="animable"></path><path d="M204.33,409.76c-.18,0-.31-1.12-.28-2.49s.19-2.48.38-2.47.31,1.11.29,2.48S204.52,409.76,204.33,409.76Z" style="fill: rgb(224, 224, 224); transform-origin: 204.384px 407.28px; user-select: auto;" id="elt1ligdq077n" class="animable"></path><path d="M207.06,408.84c-.19,0-.34-.48-.34-1.08s.15-1.09.34-1.09.34.49.34,1.09S207.25,408.84,207.06,408.84Z" style="fill: rgb(224, 224, 224); transform-origin: 207.06px 407.755px; user-select: auto;" id="elye2zu1jk5w" class="animable"></path><path d="M251.73,121.79c0,1.44-1.06,2.32-2.77,2.32h-1.48V126h-1.21v-6.53H249C250.67,119.47,251.73,120.35,251.73,121.79Zm-1.22,0c0-.82-.55-1.3-1.61-1.3h-1.42v2.6h1.42C250,123.09,250.51,122.61,250.51,121.79Z" style="fill: rgb(38, 50, 56); transform-origin: 249px 122.735px; user-select: auto;" id="elc8z69v117b5" class="animable"></path><path d="M252.4,123.51a2.66,2.66,0,1,1,2.65,2.55A2.51,2.51,0,0,1,252.4,123.51Zm4.13,0a1.48,1.48,0,1,0-1.48,1.55A1.45,1.45,0,0,0,256.53,123.51Z" style="fill: rgb(38, 50, 56); transform-origin: 255.058px 123.402px; user-select: auto;" id="elv7btas392kj" class="animable"></path><path d="M263.7,119.08V126h-1.12v-.65a2,2,0,0,1-1.65.71,2.55,2.55,0,0,1,0-5.1,2.06,2.06,0,0,1,1.6.67v-2.55Zm-1.15,4.43a1.48,1.48,0,1,0-1.48,1.55A1.46,1.46,0,0,0,262.55,123.51Z" style="fill: rgb(38, 50, 56); transform-origin: 261.04px 122.572px; user-select: auto;" id="el47uloj95gc4" class="animable"></path><path d="M264.82,123.51a2.51,2.51,0,0,1,2.69-2.55,2.25,2.25,0,0,1,2.13,1.16l-.9.52a1.41,1.41,0,0,0-1.24-.69,1.56,1.56,0,0,0,0,3.11,1.41,1.41,0,0,0,1.24-.69l.9.53a2.28,2.28,0,0,1-2.13,1.16A2.52,2.52,0,0,1,264.82,123.51Z" style="fill: rgb(38, 50, 56); transform-origin: 267.23px 123.51px; user-select: auto;" id="elb3bclofgh5e" class="animable"></path><path d="M274.81,123.08V126h-1.1v-.61a1.76,1.76,0,0,1-1.57.67c-1.14,0-1.86-.62-1.86-1.49s.56-1.48,2.07-1.48h1.29V123c0-.68-.41-1.08-1.24-1.08a2.5,2.5,0,0,0-1.51.49l-.46-.84a3.54,3.54,0,0,1,2.11-.62C274,121,274.81,121.64,274.81,123.08Zm-1.17,1.36v-.58h-1.2c-.79,0-1,.3-1,.66s.36.69.95.69A1.27,1.27,0,0,0,273.64,124.44Z" style="fill: rgb(38, 50, 56); transform-origin: 272.545px 123.509px; user-select: auto;" id="elqz6gsaevde" class="animable"></path><path d="M275.73,125.5l.44-.88a3.45,3.45,0,0,0,1.74.49c.74,0,1-.21,1-.55,0-1-3.07-.06-3.07-2,0-.94.84-1.56,2.19-1.56a4,4,0,0,1,1.86.43l-.45.89a2.71,2.71,0,0,0-1.42-.38c-.71,0-1.05.24-1.05.56,0,1,3.08.11,3.08,2.06,0,.93-.86,1.54-2.26,1.54A3.88,3.88,0,0,1,275.73,125.5Z" style="fill: rgb(38, 50, 56); transform-origin: 277.89px 123.55px; user-select: auto;" id="elpwh6ooovq2" class="animable"></path><path d="M284.09,125.72a1.8,1.8,0,0,1-1.12.34,1.53,1.53,0,0,1-1.72-1.68V122h-.82v-.94h.82v-1.13h1.17v1.13h1.33V122h-1.33v2.36c0,.49.24.75.69.75a1.11,1.11,0,0,0,.65-.2Z" style="fill: rgb(38, 50, 56); transform-origin: 282.26px 123.001px; user-select: auto;" id="el0hbwxpzo55x" class="animable"></path></g><defs style="user-select: auto;">     <filter id="active" height="200%" style="user-select: auto;">         <feMorphology in="SourceAlpha" result="DILATED" operator="dilate" radius="2" style="user-select: auto;"></feMorphology>                <feFlood flood-color="#32DFEC" flood-opacity="1" result="PINK" style="user-select: auto;"></feFlood>        <feComposite in="PINK" in2="DILATED" operator="in" result="OUTLINE" style="user-select: auto;"></feComposite>        <feMerge style="user-select: auto;">            <feMergeNode in="OUTLINE" style="user-select: auto;"></feMergeNode>            <feMergeNode in="SourceGraphic" style="user-select: auto;"></feMergeNode>        </feMerge>    </filter>    <filter id="hover" height="200%" style="user-select: auto;">        <feMorphology in="SourceAlpha" result="DILATED" operator="dilate" radius="2" style="user-select: auto;"></feMorphology>                <feFlood flood-color="#ff0000" flood-opacity="0.5" result="PINK" style="user-select: auto;"></feFlood>        <feComposite in="PINK" in2="DILATED" operator="in" result="OUTLINE" style="user-select: auto;"></feComposite>        <feMerge style="user-select: auto;">            <feMergeNode in="OUTLINE" style="user-select: auto;"></feMergeNode>            <feMergeNode in="SourceGraphic" style="user-select: auto;"></feMergeNode>        </feMerge>            <feColorMatrix type="matrix" values="0   0   0   0   0                0   1   0   0   0                0   0   0   0   0                0   0   0   1   0 " style="user-select: auto;"></feColorMatrix>    </filter></defs></svg>